<svg width="1052" height="52" viewBox="0 0 1052 52" fill="none" xmlns="http://www.w3.org/2000/svg">
<path d="M1 1V51" stroke="white" stroke-width="2" stroke-linecap="round"/>
<path d="M11 24V51" stroke="white" stroke-width="2" stroke-linecap="round"/>
<path d="M21 24V51" stroke="white" stroke-width="2" stroke-linecap="round"/>
<path d="M31 24V51" stroke="white" stroke-width="2" stroke-linecap="round"/>
<path d="M41 24V51" stroke="white" stroke-width="2" stroke-linecap="round"/>
<path d="M51 1V51" stroke="white" stroke-width="2" stroke-linecap="round"/>
<path d="M61 24V51" stroke="white" stroke-width="2" stroke-linecap="round"/>
<path d="M71 24V51" stroke="white" stroke-width="2" stroke-linecap="round"/>
<path d="M81 24V51" stroke="white" stroke-width="2" stroke-linecap="round"/>
<path d="M91 24V51" stroke="white" stroke-width="2" stroke-linecap="round"/>
<path d="M101 1V51" stroke="white" stroke-width="2" stroke-linecap="round"/>
<path d="M111 24V51" stroke="white" stroke-width="2" stroke-linecap="round"/>
<path d="M121 24V51" stroke="white" stroke-width="2" stroke-linecap="round"/>
<path d="M131 24V51" stroke="white" stroke-width="2" stroke-linecap="round"/>
<path d="M141 24V51" stroke="white" stroke-width="2" stroke-linecap="round"/>
<path d="M151 1V51" stroke="white" stroke-width="2" stroke-linecap="round"/>
<path d="M161 24V51" stroke="white" stroke-width="2" stroke-linecap="round"/>
<path d="M171 24V51" stroke="white" stroke-width="2" stroke-linecap="round"/>
<path d="M181 24V51" stroke="white" stroke-width="2" stroke-linecap="round"/>
<path d="M191 24V51" stroke="white" stroke-width="2" stroke-linecap="round"/>
<path d="M201 1V51" stroke="white" stroke-width="2" stroke-linecap="round"/>
<path d="M211 24V51" stroke="white" stroke-width="2" stroke-linecap="round"/>
<path d="M221 24V51" stroke="white" stroke-width="2" stroke-linecap="round"/>
<path d="M231 24V51" stroke="white" stroke-width="2" stroke-linecap="round"/>
<path d="M241 24V51" stroke="white" stroke-width="2" stroke-linecap="round"/>
<path d="M251 1V51" stroke="white" stroke-width="2" stroke-linecap="round"/>
<path d="M261 24V51" stroke="white" stroke-width="2" stroke-linecap="round"/>
<path d="M271 24V51" stroke="white" stroke-width="2" stroke-linecap="round"/>
<path d="M281 24V51" stroke="white" stroke-width="2" stroke-linecap="round"/>
<path d="M291 24V51" stroke="white" stroke-width="2" stroke-linecap="round"/>
<path d="M301 1V51" stroke="white" stroke-width="2" stroke-linecap="round"/>
<path d="M311 24V51" stroke="white" stroke-width="2" stroke-linecap="round"/>
<path d="M321 24V51" stroke="white" stroke-width="2" stroke-linecap="round"/>
<path d="M331 24V51" stroke="white" stroke-width="2" stroke-linecap="round"/>
<path d="M341 24V51" stroke="white" stroke-width="2" stroke-linecap="round"/>
<path d="M351 1V51" stroke="white" stroke-width="2" stroke-linecap="round"/>
<path d="M361 24V51" stroke="white" stroke-width="2" stroke-linecap="round"/>
<path d="M371 24V51" stroke="white" stroke-width="2" stroke-linecap="round"/>
<path d="M381 24V51" stroke="white" stroke-width="2" stroke-linecap="round"/>
<path d="M391 24V51" stroke="white" stroke-width="2" stroke-linecap="round"/>
<path d="M401 1V51" stroke="white" stroke-width="2" stroke-linecap="round"/>
<path d="M411 24V51" stroke="white" stroke-width="2" stroke-linecap="round"/>
<path d="M421 24V51" stroke="white" stroke-width="2" stroke-linecap="round"/>
<path d="M431 24V51" stroke="white" stroke-width="2" stroke-linecap="round"/>
<path d="M441 24V51" stroke="white" stroke-width="2" stroke-linecap="round"/>
<path d="M451 1V51" stroke="white" stroke-width="2" stroke-linecap="round"/>
<path d="M461 24V51" stroke="white" stroke-width="2" stroke-linecap="round"/>
<path d="M471 24V51" stroke="white" stroke-width="2" stroke-linecap="round"/>
<path d="M481 24V51" stroke="white" stroke-width="2" stroke-linecap="round"/>
<path d="M491 24V51" stroke="white" stroke-width="2" stroke-linecap="round"/>
<path d="M501 1V51" stroke="white" stroke-width="2" stroke-linecap="round"/>
<path d="M511 24V51" stroke="white" stroke-width="2" stroke-linecap="round"/>
<path d="M521 24V51" stroke="white" stroke-width="2" stroke-linecap="round"/>
<path d="M531 24V51" stroke="white" stroke-width="2" stroke-linecap="round"/>
<path d="M541 24V51" stroke="white" stroke-width="2" stroke-linecap="round"/>
<path d="M551 1V51" stroke="white" stroke-width="2" stroke-linecap="round"/>
<path d="M561 24V51" stroke="white" stroke-width="2" stroke-linecap="round"/>
<path d="M571 24V51" stroke="white" stroke-width="2" stroke-linecap="round"/>
<path d="M581 24V51" stroke="white" stroke-width="2" stroke-linecap="round"/>
<path d="M591 24V51" stroke="white" stroke-width="2" stroke-linecap="round"/>
<path d="M601 1V51" stroke="white" stroke-width="2" stroke-linecap="round"/>
<path d="M611 24V51" stroke="white" stroke-width="2" stroke-linecap="round"/>
<path d="M621 24V51" stroke="white" stroke-width="2" stroke-linecap="round"/>
<path d="M631 24V51" stroke="white" stroke-width="2" stroke-linecap="round"/>
<path d="M641 24V51" stroke="white" stroke-width="2" stroke-linecap="round"/>
<path d="M651 1V51" stroke="white" stroke-width="2" stroke-linecap="round"/>
<path d="M661 24V51" stroke="white" stroke-width="2" stroke-linecap="round"/>
<path d="M671 24V51" stroke="white" stroke-width="2" stroke-linecap="round"/>
<path d="M681 24V51" stroke="white" stroke-width="2" stroke-linecap="round"/>
<path d="M691 24V51" stroke="white" stroke-width="2" stroke-linecap="round"/>
<path d="M701 1V51" stroke="white" stroke-width="2" stroke-linecap="round"/>
<path d="M711 24V51" stroke="white" stroke-width="2" stroke-linecap="round"/>
<path d="M721 24V51" stroke="white" stroke-width="2" stroke-linecap="round"/>
<path d="M731 24V51" stroke="white" stroke-width="2" stroke-linecap="round"/>
<path d="M741 24V51" stroke="white" stroke-width="2" stroke-linecap="round"/>
<path d="M751 1V51" stroke="white" stroke-width="2" stroke-linecap="round"/>
<path d="M761 24V51" stroke="white" stroke-width="2" stroke-linecap="round"/>
<path d="M771 24V51" stroke="white" stroke-width="2" stroke-linecap="round"/>
<path d="M781 24V51" stroke="white" stroke-width="2" stroke-linecap="round"/>
<path d="M791 24V51" stroke="white" stroke-width="2" stroke-linecap="round"/>
<path d="M801 1V51" stroke="white" stroke-width="2" stroke-linecap="round"/>
<path d="M811 24V51" stroke="white" stroke-width="2" stroke-linecap="round"/>
<path d="M821 24V51" stroke="white" stroke-width="2" stroke-linecap="round"/>
<path d="M831 24V51" stroke="white" stroke-width="2" stroke-linecap="round"/>
<path d="M841 24V51" stroke="white" stroke-width="2" stroke-linecap="round"/>
<path d="M851 1V51" stroke="white" stroke-width="2" stroke-linecap="round"/>
<path d="M861 24V51" stroke="white" stroke-width="2" stroke-linecap="round"/>
<path d="M871 24V51" stroke="white" stroke-width="2" stroke-linecap="round"/>
<path d="M881 24V51" stroke="white" stroke-width="2" stroke-linecap="round"/>
<path d="M891 24V51" stroke="white" stroke-width="2" stroke-linecap="round"/>
<path d="M901 1V51" stroke="white" stroke-width="2" stroke-linecap="round"/>
<path d="M911 24V51" stroke="white" stroke-width="2" stroke-linecap="round"/>
<path d="M921 24V51" stroke="white" stroke-width="2" stroke-linecap="round"/>
<path d="M931 24V51" stroke="white" stroke-width="2" stroke-linecap="round"/>
<path d="M941 24V51" stroke="white" stroke-width="2" stroke-linecap="round"/>
<path d="M951 1V51" stroke="white" stroke-width="2" stroke-linecap="round"/>
<path d="M961 24V51" stroke="white" stroke-width="2" stroke-linecap="round"/>
<path d="M971 24V51" stroke="white" stroke-width="2" stroke-linecap="round"/>
<path d="M981 24V51" stroke="white" stroke-width="2" stroke-linecap="round"/>
<path d="M991 24V51" stroke="white" stroke-width="2" stroke-linecap="round"/>
<path d="M1001 1V51" stroke="white" stroke-width="2" stroke-linecap="round"/>
<path d="M1011 24V51" stroke="white" stroke-width="2" stroke-linecap="round"/>
<path d="M1021 24V51" stroke="white" stroke-width="2" stroke-linecap="round"/>
<path d="M1031 24V51" stroke="white" stroke-width="2" stroke-linecap="round"/>
<path d="M1041 24V51" stroke="white" stroke-width="2" stroke-linecap="round"/>
<path d="M1051 1V51" stroke="white" stroke-width="2" stroke-linecap="round"/>
</svg>
