<svg width="211" height="26" viewBox="0 0 211 26" fill="none" xmlns="http://www.w3.org/2000/svg">
<path fill-rule="evenodd" clip-rule="evenodd" d="M0.333984 26L8.02413 1H210.334L202.644 26H0.333984Z" fill="#856398"/>
<path d="M17.7439 4H13.0109L7.33398 22.4062H12.0671L15.5464 11.125L18.8427 19.4375L25.7438 12.5906L22.7165 22.4062H27.4496L33.1264 4H28.3934L20.6176 11.125L17.7439 4Z" fill="white"/>
<path d="M42.5926 4H37.8595L34.2252 16.4688C33.6195 18.8438 35.4085 23 40.1415 23C46.0579 23 49.2978 20.625 51.129 14.6875L54.4253 4H49.6922L47.2412 11.9471C45.3395 18.113 43.6913 18.8438 41.3248 18.8438C38.9583 18.8438 38.8977 15.98 39.2963 14.6875L42.5926 4Z" fill="white"/>
<path d="M63.8915 4H59.1584L53.4815 22.4062H56.7073H66.4975L67.7066 18.4858H59.4237L63.8915 4Z" fill="white"/>
<path d="M85.1903 4H69.8078L68.54 8.11058H74.4564L70.0473 22.4062H74.7803L79.1894 8.11058H83.9225L85.1903 4Z" fill="white"/>
<path d="M92.2899 4H87.5568L81.88 22.4062H86.613L92.2899 4Z" fill="white"/>
<path d="M111.222 4H97.023L91.3461 22.4062H96.0792L98.1217 15.7837H107.588L108.771 11.9471H99.305L100.488 8.11058H109.954L111.222 4Z" fill="white"/>
<path d="M147.904 4H133.704L128.027 22.4062H142.227L143.436 18.4858H133.97L134.958 15.2812H144.424L145.706 11.125H136.24L137.17 8.11058H146.636L147.904 4Z" fill="white"/>
<path d="M165.653 4H151.453L145.777 22.4062H159.976L161.185 18.4858H151.719L152.707 15.2812H162.173L163.202 11.125H153.989L154.919 8.11058H164.385L165.653 4Z" fill="white"/>
<path d="M184.585 4H169.202L167.935 8.11058H176.809L164.735 18.4858L163.526 22.4062H178.908L180.117 18.4858H170.893L183.486 7.5625L184.585 4Z" fill="white"/>
<path d="M202.334 4H188.135L182.458 22.4062H196.657L197.866 18.4858H188.4L189.388 15.2812H198.855L200.136 11.125H190.67L191.6 8.11058H201.066L202.334 4Z" fill="white"/>
<path fill-rule="evenodd" clip-rule="evenodd" d="M114.772 4H125.929C127.703 4 129.801 5.1875 129.478 8.75C129.005 13.975 124.943 16.0729 122.97 16.4688L125.337 22.4062H120.012L118.237 17.0625H115.476L113.828 22.4062H109.095L114.772 4ZM122.97 8.11058H118.237L117.054 12.9062H120.012C121.195 12.9062 124.154 12.9062 124.745 10.5312C125.204 8.68798 123.562 8.1258 122.97 8.11058Z" fill="white"/>
</svg>
