<svg width="586" height="514" viewBox="0 0 586 514" fill="none" xmlns="http://www.w3.org/2000/svg">
<g clip-path="url(#clip0_2300_3756)">
<path opacity="0.3" d="M246.461 222.814C304.006 165.227 304.006 71.859 246.461 14.2714C188.916 -43.3161 95.6178 -43.3161 38.073 14.2714C-19.4718 71.859 -19.4718 165.227 38.073 222.814C95.6178 280.402 188.916 280.402 246.461 222.814Z" fill="url(#paint0_radial_2300_3756)"/>
<path opacity="0.3" d="M275.099 511.872C345.809 441.109 345.809 326.379 275.099 255.616C204.388 184.853 89.7435 184.853 19.0329 255.616C-51.6777 326.379 -51.6777 441.109 19.0329 511.872C89.7435 582.635 204.388 582.635 275.099 511.872Z" fill="url(#paint1_radial_2300_3756)"/>
<path d="M392.212 373.982C457.226 308.921 457.226 203.434 392.212 138.373C327.199 73.3108 221.791 73.3108 156.778 138.373C91.7644 203.434 91.7644 308.921 156.778 373.982C221.791 439.044 327.199 439.044 392.212 373.982Z" stroke="url(#paint2_linear_2300_3756)" stroke-width="3" stroke-linecap="round" stroke-linejoin="round"/>
<path opacity="0.94" d="M273.334 88.3842C298.503 87.7243 323.034 92.784 344.077 103.753C351.124 107.484 357.968 111.587 364.581 116.043C376.236 123.62 387.263 132.123 397.555 141.471C411.556 154.366 423.178 169.628 431.887 186.559C442.699 207.628 448.754 232.287 447.465 257.255C445.816 288.694 433.826 315.332 418.248 340.901C405.019 362.71 389.931 384.059 368.748 398.158C352.261 409.157 332.656 414.927 312.792 419.157C299.328 422.062 285.644 423.828 271.885 424.436C261.127 424.928 250.347 424.395 239.69 422.847C217.761 419.488 196.852 411.29 178.479 398.848C160.106 386.394 144.574 370.19 132.905 351.3C121.624 333.091 113.92 312.562 109.274 290.764C106.706 279.55 105.365 268.09 105.277 256.585C105.387 235.176 110.893 215.198 117.827 196.179C123.623 180.349 130.427 165.56 140.339 152.281C146.605 143.984 153.841 136.467 161.892 129.892C169.912 123.363 178.503 117.57 187.562 112.583C213.091 98.3637 242.178 89.2142 273.334 88.3842Z" stroke="url(#paint3_linear_2300_3756)" stroke-width="2.94" stroke-linecap="round" stroke-linejoin="round"/>
<path opacity="0.88" d="M272.174 87.2144C297.994 85.8845 323.783 90.7042 344.906 103.124C351.901 107.263 358.626 111.893 365.43 116.603C377.331 124.822 389.291 132.912 400.073 141.792C415.171 154.029 427.881 168.952 437.563 185.809C449.663 206.958 456.468 232.947 453.89 258.335C450.592 290.334 434.985 314.722 418.448 341.081C404.609 363.29 391.719 387.629 369.887 401.968C353 413.077 331.847 416.507 311.603 420.307C297.603 422.986 283.476 424.952 269.277 426.196C258.502 427.172 247.66 427.132 236.893 426.076C214.526 423.562 193.122 415.573 174.572 402.818C156.053 390.038 140.663 373.229 129.558 353.65C118.847 334.841 112.092 313.792 107.146 291.724C104.628 280.494 102.53 269.005 102.649 257.105C102.859 235.477 109.924 215.768 116.638 196.379C122.204 180.279 127.54 165.14 137.202 151.471C143.391 142.954 150.798 135.393 159.184 129.032C167.479 122.724 176.313 117.159 185.583 112.403C211.633 98.6938 240.839 88.8043 272.174 87.2144Z" stroke="url(#paint4_linear_2300_3756)" stroke-width="2.88" stroke-linecap="round" stroke-linejoin="round"/>
<path opacity="0.81" d="M271.005 85.9843C297.494 83.9844 324.522 88.5442 345.735 102.433C352.73 107.023 359.335 112.113 366.279 117.093C378.409 125.792 391.099 133.642 402.63 142.091C418.811 153.684 432.614 168.282 443.288 185.089C456.667 206.318 464.271 233.646 460.354 259.455C455.358 292.033 436.123 314.112 418.677 341.301C404.199 363.87 393.557 391.248 371.065 405.807C353.769 417.047 331.097 418.117 310.414 421.467C296.115 423.786 281.267 426.086 266.658 427.886C255.865 429.34 244.961 429.795 234.084 429.246C211.278 427.592 189.338 419.816 170.575 406.737C151.897 393.625 136.65 376.205 126.12 355.95C115.978 336.541 110.133 314.952 104.927 292.633C102.259 281.234 99.7114 269.635 99.9312 257.565C100.241 235.716 108.864 216.277 115.279 196.518C120.625 180.149 124.472 164.66 133.904 150.611C139.994 141.874 147.55 134.258 156.236 128.102C164.817 122.046 173.896 116.731 183.375 112.213C210.173 99.0136 239.52 88.3842 271.005 85.9843Z" stroke="url(#paint5_linear_2300_3756)" stroke-width="2.81" stroke-linecap="round" stroke-linejoin="round"/>
<path opacity="0.75" d="M269.845 84.7842C296.994 82.0744 325.271 86.4041 346.554 101.783C353.549 106.783 360.054 112.373 367.128 117.632C379.498 126.802 392.927 134.382 405.198 142.341C422.294 153.441 436.982 166.87 449.013 184.339C463.671 205.658 471.994 234.336 466.808 260.545C460.214 293.693 437.312 313.542 418.917 341.481C403.819 364.479 395.385 394.828 372.244 409.627C354.538 420.976 330.277 419.686 309.224 422.626C294.376 424.626 278.998 427.196 264.05 429.626C252.899 431.426 242.177 432.706 231.276 432.476C208.484 431.986 185.513 423.996 166.668 410.747C147.801 397.26 132.691 379.172 122.773 358.2C113.19 338.201 108.264 316.112 102.788 293.493C99.9807 281.924 96.9631 270.224 97.2029 257.985C97.6225 235.906 107.804 216.757 113.96 196.618C119.075 179.979 121.444 164.13 130.636 149.711C136.392 140.711 144.625 133.142 153.368 127.142C162.111 121.142 171.574 116.533 181.266 112.023C208.714 99.3434 238.151 87.954 269.845 84.7842Z" stroke="url(#paint6_linear_2300_3756)" stroke-width="2.75" stroke-linecap="round" stroke-linejoin="round"/>
<path opacity="0.69" d="M268.687 83.5844C296.474 80.2146 326.031 84.2644 347.434 101.123C354.368 106.593 360.813 112.613 368.037 118.123C380.627 127.772 394.806 135.122 407.806 142.601C425.991 153.111 441.689 166 454.768 183.519C470.756 204.908 479.748 234.906 473.314 261.515C465.06 295.243 438.551 312.782 419.197 341.561C403.489 364.91 397.214 398.308 373.463 413.327C355.348 424.806 329.548 421.137 308.075 423.616C292.677 425.396 276.77 428.126 261.482 431.166C250.281 433.396 239.55 435.266 228.509 435.486C205.527 435.946 181.846 428.096 162.771 414.487C143.476 400.768 128.708 381.559 119.435 360.49C110.443 339.891 106.446 317.292 100.68 294.403C97.7327 282.664 94.2555 270.855 94.5552 258.405C95.0748 236.106 106.815 217.227 112.701 196.718C117.597 179.809 118.496 163.61 127.449 148.811C133.045 139.561 141.538 131.982 150.561 126.182C159.583 120.382 169.226 116.213 179.148 111.833C207.255 99.6736 236.812 87.5042 268.687 83.5844Z" stroke="url(#paint7_linear_2300_3756)" stroke-width="2.69" stroke-linecap="round" stroke-linejoin="round"/>
<path opacity="0.63" d="M267.499 82.3946C295.967 78.2548 326.762 82.1046 348.185 100.464C355.089 106.373 361.444 112.863 368.808 118.673C381.638 128.792 396.546 135.842 410.285 142.911C429.56 152.831 446.257 165.19 460.426 182.779C477.652 204.258 487.404 235.586 479.71 262.645C469.798 296.943 439.682 312.222 419.368 341.781C403.051 365.53 399.014 401.928 374.574 417.187C356.049 428.786 328.69 422.727 306.818 424.786C290.65 426.408 274.609 429.121 258.806 432.906C247.545 435.556 236.824 438.036 225.633 438.706C202.381 440.096 178.08 432.386 158.766 418.477C139.251 404.478 124.683 384.479 115.99 362.82C107.547 341.631 104.449 318.512 98.4538 295.353C95.3663 283.444 91.4594 271.525 91.7891 258.945C92.4086 236.426 105.708 217.827 111.334 196.949C116.01 179.769 115.42 163.22 124.133 148.031C129.579 138.552 138.352 130.962 147.645 125.352C156.937 119.743 166.869 115.793 177.011 111.653C205.798 99.9937 235.525 87.0543 267.499 82.3946Z" stroke="url(#paint8_linear_2300_3756)" stroke-width="2.63" stroke-linecap="round" stroke-linejoin="round"/>
<path opacity="0.56" d="M266.371 81.2145C295.497 76.3448 327.552 79.9746 349.045 99.8235C355.919 106.173 362.194 113.133 369.688 119.213C382.748 129.812 398.415 136.582 412.884 143.211C433.228 152.531 450.964 164.37 466.171 182.039C484.687 203.598 495.218 236.256 486.156 263.735C474.595 298.603 440.862 311.612 419.589 341.971C402.672 366.109 400.824 405.517 375.734 420.967C356.799 432.686 327.892 424.236 305.609 425.886C288.896 427.218 272.346 430.124 256.179 434.566C244.868 437.626 234.126 440.726 222.805 441.845C199.334 444.165 174.364 436.606 154.859 422.356C135.135 407.987 120.747 387.358 112.643 365.08C104.769 343.301 102.581 319.662 96.326 296.223C93.0886 284.154 88.7021 272.134 89.1218 259.375C89.8512 236.626 104.699 218.307 110.105 197.048C114.551 179.599 112.483 162.7 120.956 147.131C126.252 137.412 135.305 129.802 144.857 124.392C154.41 118.983 164.622 115.393 174.973 111.393C204.34 100.324 234.126 86.5742 266.371 81.2145Z" stroke="url(#paint9_linear_2300_3756)" stroke-width="2.56" stroke-linecap="round" stroke-linejoin="round"/>
<path opacity="0.5" d="M265.201 79.9946C294.998 74.3849 328.321 77.7847 349.874 99.1435C356.718 105.923 362.864 113.363 370.537 119.722C383.837 130.792 400.244 137.292 415.442 143.481C436.875 152.211 455.62 163.48 471.897 181.269C491.691 202.908 502.972 236.906 492.66 264.805C479.451 300.243 442.11 310.992 419.878 342.141C402.352 366.669 402.702 409.077 376.962 424.796C357.628 436.646 327.152 425.796 304.47 427.036C287.212 428.077 270.14 431.182 253.62 436.286C242.25 439.756 231.508 443.465 220.047 445.035C196.346 448.285 170.717 440.885 150.932 426.306C130.948 411.617 116.779 390.308 109.265 367.399C101.961 345.021 100.682 320.872 94.1675 297.163C90.7902 284.914 85.9441 272.794 86.4237 259.865C87.253 236.866 103.66 218.867 108.766 197.218C112.983 179.499 109.445 162.22 117.679 146.301C122.815 136.302 132.157 128.722 141.969 123.492C151.782 118.263 162.253 115.033 172.815 111.273C202.891 100.643 232.787 86.0942 265.201 79.9946Z" stroke="url(#paint10_linear_2300_3756)" stroke-width="2.5" stroke-linecap="round" stroke-linejoin="round"/>
<path opacity="0.44" d="M264.042 78.7946C294.488 72.435 329.1 75.6148 350.703 98.4836C357.518 105.703 363.623 113.613 371.417 120.212C384.946 131.762 402.102 137.991 418.03 143.741C440.552 151.871 460.316 162.66 477.652 180.489C498.725 202.208 510.756 237.536 499.155 265.855C484.297 301.853 443.339 310.352 420.138 342.281C402.022 367.219 404.56 412.627 378.171 428.576C358.427 440.576 326.403 427.286 303.311 428.126C285.505 428.875 267.9 432.179 251.033 437.936C239.592 441.845 228.84 446.195 217.239 448.195C193.309 452.375 167.009 445.115 146.995 430.196C126.831 415.197 112.813 393.128 105.898 369.669C99.1535 346.67 98.7938 322.022 92.0092 298.053C88.492 285.634 83.1762 273.404 83.7158 260.305C84.6551 237.116 102.621 219.307 107.467 197.308C111.464 179.309 106.468 161.72 114.461 145.391C119.457 135.202 129.07 127.552 139.142 122.522C149.214 117.493 159.965 114.603 170.737 111.033C201.432 100.973 231.438 85.6043 264.042 78.7946Z" stroke="url(#paint11_linear_2300_3756)" stroke-width="2.44" stroke-linecap="round" stroke-linejoin="round"/>
<path opacity="0.38" d="M262.883 77.5948C293.978 70.4852 329.88 73.445 351.523 97.8237C358.317 105.483 364.332 113.823 372.236 120.822C386.005 132.822 403.901 138.822 420.568 144.111C444.169 151.631 464.942 161.91 483.338 179.809C505.7 201.608 518.47 238.276 505.59 267.005C489.073 303.593 444.519 309.833 420.348 342.541C401.633 367.869 406.359 416.277 379.331 432.456C359.167 444.555 325.583 428.886 302.102 429.326C283.747 429.772 265.595 433.28 248.395 439.706C236.924 443.975 226.162 448.945 214.422 451.425C190.261 456.525 163.303 449.425 143.049 434.176C122.795 418.927 108.846 396.078 102.511 372.039C96.3359 348.47 96.8854 323.272 89.851 299.043C86.1839 286.464 80.4085 274.124 81.0081 260.855C82.0073 237.446 101.572 219.947 106.148 197.568C109.925 179.309 103.42 161.36 111.144 144.651C115.99 134.222 125.882 126.562 136.214 121.722C146.546 116.883 157.587 114.283 168.578 110.893C199.973 101.304 230.089 85.0944 262.883 77.5948Z" stroke="url(#paint12_linear_2300_3756)" stroke-width="2.38" stroke-linecap="round" stroke-linejoin="round"/>
<path opacity="0.31" d="M261.724 76.3947C293.468 68.5152 330.669 71.275 352.351 97.1736C359.126 105.253 365.041 114.113 373.085 121.302C387.074 133.792 405.729 139.461 423.125 144.301C447.825 151.231 469.598 160.98 489.073 178.959C512.714 200.848 526.233 238.846 512.054 267.955C493.889 305.203 445.797 309.202 420.587 342.671C401.322 368.429 408.197 419.807 380.509 436.216C359.935 448.435 324.803 430.346 300.912 430.396C282.011 430.532 263.306 434.247 245.786 441.345C234.245 446.015 223.494 451.605 211.633 454.535C187.233 460.534 159.615 453.625 139.121 438.046C118.628 422.466 104.888 398.908 99.1531 374.279C93.5475 350.11 95.0064 324.402 87.7122 299.883C83.9052 287.124 77.6702 274.684 78.3296 261.245C79.4687 237.616 100.552 220.397 104.869 197.638C108.416 179.109 100.442 160.81 107.956 143.711C112.642 133.062 122.824 125.372 133.416 120.712C144.007 116.053 155.298 113.883 166.489 110.713C198.554 101.623 228.73 84.5843 261.724 76.3947Z" stroke="url(#paint13_linear_2300_3756)" stroke-width="2.31" stroke-linecap="round" stroke-linejoin="round"/>
<path opacity="0.25" d="M260.564 75.2148C292.959 66.5653 331.458 69.1152 353.181 96.5337C359.925 105.043 365.761 114.383 373.934 121.842C388.163 134.842 407.567 140.171 425.693 144.651C451.482 150.921 474.254 160.21 494.778 178.269C519.708 200.268 533.977 239.566 518.509 269.135C498.695 306.863 446.996 308.632 420.827 342.861C400.963 369.029 410.025 423.396 381.688 440.036C360.705 452.385 324.014 431.876 299.753 431.536C280.305 431.357 261.038 435.282 243.208 443.055C231.607 448.105 220.856 454.315 208.856 457.725C184.215 464.634 155.948 457.885 135.214 441.975C114.481 426.066 100.951 401.808 95.7956 376.589C90.7995 351.83 93.1277 325.592 85.5737 300.813C81.5769 287.884 74.9322 275.344 75.6516 261.725C76.9006 237.866 99.5326 220.927 103.629 197.798C106.957 178.999 97.4942 160.35 104.768 142.871C109.305 131.982 119.756 124.272 130.618 119.872C141.479 115.473 153.03 113.593 164.441 110.583C197.055 101.953 227.381 84.0644 260.564 75.2148Z" stroke="url(#paint14_linear_2300_3756)" stroke-width="2.25" stroke-linecap="round" stroke-linejoin="round"/>
<path opacity="0.19" d="M259.405 73.9951C292.439 64.5556 332.257 66.9155 354.01 95.8539C360.735 104.853 366.47 114.623 374.783 122.353C389.252 135.792 409.396 140.882 428.251 144.921C455.12 150.591 478.921 159.351 500.503 177.49C526.713 199.538 541.721 240.206 524.974 270.205C503.511 308.503 448.195 308.003 421.057 343.031C400.583 369.589 411.844 426.966 382.857 443.836C361.464 456.305 323.225 433.366 298.524 432.646C278.534 432.15 258.7 436.284 240.57 444.726C228.9 450.175 218.148 457.015 206.018 460.885C181.138 468.724 152.211 462.125 131.247 445.885C110.284 429.646 96.9647 404.678 92.3884 378.889C87.9219 353.54 91.1993 326.792 83.3955 301.723C79.2988 288.634 72.1545 275.984 72.9339 262.195C74.2828 238.116 98.4735 221.457 102.271 197.949C105.368 178.89 94.4268 159.881 101.461 142.022C105.848 130.892 116.589 123.173 127.71 118.923C138.831 114.673 150.692 113.183 162.263 110.363C195.556 102.274 226.012 83.5346 259.405 73.9951Z" stroke="url(#paint15_linear_2300_3756)" stroke-width="2.19" stroke-linecap="round" stroke-linejoin="round"/>
<path opacity="0.13" d="M258.235 72.7949C291.908 62.5655 333.056 64.7954 354.838 95.1937C361.543 104.573 367.179 114.873 375.632 122.872C390.33 136.792 411.223 141.611 430.808 145.201C458.786 150.281 483.576 158.52 506.228 176.739C533.716 198.858 549.473 240.866 531.428 271.264C508.306 310.142 449.353 307.383 421.305 343.201C400.232 370.199 413.681 430.536 384.045 447.645C362.252 460.194 322.454 434.856 297.344 433.756C276.801 432.934 256.38 437.284 237.951 446.405C226.221 452.235 215.479 459.724 203.209 464.034C178.099 472.814 148.513 466.364 127.27 449.785C106.026 433.206 92.9968 407.537 89.01 381.199C85.1131 355.25 89.3098 327.991 81.2262 302.653C76.9896 289.393 69.3756 276.654 70.235 262.655C71.6938 238.356 97.4433 221.967 100.97 198.088C103.848 178.759 91.4381 159.39 98.2327 141.161C102.469 129.802 113.481 122.052 124.861 117.993C136.242 113.933 148.333 112.803 160.163 110.173C194.136 102.603 224.652 83.0044 258.235 72.7949Z" stroke="url(#paint16_linear_2300_3756)" stroke-width="2.13" stroke-linecap="round" stroke-linejoin="round"/>
<path opacity="0.06" d="M257.076 71.6049C291.369 60.5055 333.885 62.5354 355.668 94.5337C362.362 104.333 367.898 115.123 376.481 123.402C391.419 137.791 413.052 142.341 433.376 145.491C462.413 149.971 488.232 157.69 511.943 175.979C540.72 198.188 557.227 241.526 537.923 272.344C513.162 311.792 450.622 306.773 421.565 343.341C399.892 370.689 415.57 434.076 385.254 451.405C363.052 464.124 321.705 436.276 296.185 434.846C275.094 433.681 254.081 438.249 235.374 448.065C223.563 454.275 212.841 462.404 200.401 467.174C175.062 476.874 144.816 470.584 123.373 453.665C101.93 436.746 89.03 410.417 85.6427 383.438C82.3154 356.9 87.4213 329.121 79.078 303.503C74.6515 290.073 66.6579 277.204 67.5172 263.085C69.0759 238.566 96.3842 222.447 99.6516 198.198C102.309 178.599 88.4105 158.88 94.9653 140.261C99.0521 128.672 110.353 120.912 121.944 117.043C133.535 113.173 145.925 112.403 157.975 109.953C192.678 102.923 223.263 82.4043 257.076 71.6049Z" stroke="url(#paint17_linear_2300_3756)" stroke-width="2.06" stroke-linecap="round" stroke-linejoin="round"/>
<path d="M392.212 373.982C457.226 308.921 457.226 203.434 392.212 138.373C327.199 73.3108 221.791 73.3108 156.778 138.373C91.7644 203.434 91.7644 308.921 156.778 373.982C221.791 439.044 327.199 439.044 392.212 373.982Z" stroke="url(#paint18_linear_2300_3756)" stroke-width="3" stroke-linecap="round" stroke-linejoin="round"/>
<path opacity="0.86" d="M276.27 81.3447C302.04 81.5347 326.45 92.6741 347.434 104.563C364.58 114.263 379.408 127.402 393.397 141.301C400.751 148.611 407.845 156.161 413.491 164.92C423.153 179.919 427.78 197.229 433.025 214.628C437.142 228.257 441.549 241.336 442.138 256.095C442.461 266.983 441.164 277.858 438.291 288.364C435.478 298.773 431.667 308.886 426.91 318.562C413.271 346.991 393.807 372.699 368.747 391.358C343.437 410.197 311.662 422.487 277.839 420.267C271.514 419.847 265.319 418.797 259.054 418.057C247.953 416.757 237.071 416.117 226.78 414.817C212.189 413.076 197.952 409.107 184.563 403.048C167.277 395.168 151.11 382.279 141.078 366.64C128.248 346.641 125.091 325.762 119.485 301.433C115.488 283.894 110.292 265.435 111.661 246.806C113.38 223.447 120.604 202.868 131.066 183.579C140.056 166.945 150.969 151.426 163.58 137.342C173.572 126.242 184.713 115.033 197.243 106.953C219.885 92.3741 247.323 81.1547 276.27 81.3447Z" stroke="url(#paint19_linear_2300_3756)" stroke-width="2.86" stroke-linecap="round" stroke-linejoin="round"/>
<path opacity="0.71" d="M278.04 73.1051C303.16 73.4851 327.001 89.6543 346.805 102.404C363.492 113.143 377.261 127.682 391.769 141.402C399.413 148.621 407.227 155.671 412.912 164.59C422.645 179.88 424.583 198.199 430.478 215.588C435.155 229.277 442.049 241.176 443.238 256.015C444.107 266.795 442.099 277.634 438.832 287.484C435.524 297.583 430.838 306.883 425.842 316.122C411.174 343.201 393.248 369.2 369.557 388.589C345.576 408.227 314.201 421.947 281.197 417.747C274.413 416.887 267.828 415.117 261.013 414.237C249.023 412.697 237.222 413.387 226.141 413.597C210.404 413.937 195.336 412.097 179.918 406.788C160.573 400.128 141.878 385.789 133.395 367.86C122.523 344.861 127.579 323.262 123.343 296.683C120.345 277.384 112.481 257.235 115.349 237.436C118.577 214.938 128.129 196.759 139.75 178.9C149.808 163.391 160.744 148.471 172.504 134.212C181.546 123.322 191.419 110.623 202.8 102.344C223.653 87.1344 250.272 72.7152 278.04 73.1051Z" stroke="url(#paint20_linear_2300_3756)" stroke-width="2.71" stroke-linecap="round" stroke-linejoin="round"/>
<path opacity="0.57" d="M279.818 64.8655C304.289 65.4455 327.451 86.6744 346.156 100.214C362.373 112.013 375.133 127.912 390.201 141.461C398.124 148.591 406.658 155.141 412.373 164.22C422.185 179.809 421.426 199.138 427.991 216.508C433.206 230.257 442.569 240.976 444.397 255.885C445.676 266.395 443.248 277.134 439.401 286.574C435.544 296.203 430.229 304.853 424.823 313.632C409.086 339.331 392.699 365.72 370.386 385.789C347.774 406.247 316.739 421.197 284.545 415.197C277.311 413.857 270.336 411.407 262.982 410.387C250.062 408.597 237.352 410.627 225.512 412.387C208.655 414.887 192.468 414.937 175.272 410.537C153.879 405.068 132.636 389.378 125.691 369.079C116.798 343.081 130.068 320.772 127.2 291.934C125.202 270.875 114.54 249.086 118.977 228.067C123.543 206.428 135.543 190.639 148.363 174.22C159.205 160.33 170.446 145.381 181.407 131.012C189.55 120.343 198.104 106.123 208.385 97.6638C227.42 81.8746 253.23 64.2856 279.818 64.8655Z" stroke="url(#paint21_linear_2300_3756)" stroke-width="2.57" stroke-linecap="round" stroke-linejoin="round"/>
<path opacity="0.43" d="M281.586 56.6258C305.407 57.3958 327.979 83.7244 345.535 98.0936C361.262 110.993 373.013 128.222 388.641 141.611C396.854 148.611 406.107 154.691 411.852 163.92C421.744 179.819 418.297 200.148 425.511 217.507C431.287 231.317 443.097 240.856 445.565 255.845C447.244 266.085 444.406 276.714 440.03 285.734C435.623 294.903 429.638 302.893 423.853 311.232C407.066 335.561 392.218 362.29 371.274 383.069C349.981 404.257 319.316 420.297 287.931 412.707C280.237 410.857 272.873 407.757 264.949 406.597C251.11 404.597 237.471 407.937 224.871 411.177C206.885 415.837 189.609 417.767 170.614 414.287C147.183 409.987 123.392 392.928 117.986 370.289C111.072 341.291 132.565 318.292 131.046 287.174C129.997 264.365 116.467 240.896 122.622 218.687C128.388 197.888 142.986 184.499 157.005 169.53C169.083 156.44 180.212 142.506 190.309 127.832C197.553 117.413 204.777 101.643 213.87 93.0139C231.176 76.5848 256.186 55.8559 281.586 56.6258Z" stroke="url(#paint22_linear_2300_3756)" stroke-width="2.43" stroke-linecap="round" stroke-linejoin="round"/>
<path opacity="0.29" d="M283.366 48.3863C306.527 49.3863 328.44 80.8046 344.857 95.9438C360.065 109.943 370.836 128.492 387.023 141.711C395.527 148.661 405.499 154.201 411.284 163.59C421.276 179.789 415.101 201.118 422.985 218.477C429.31 232.337 443.548 240.696 446.676 255.755C448.744 265.755 445.517 276.254 440.581 284.864C435.645 293.473 428.97 300.863 422.805 308.793C404.969 331.791 391.66 358.79 372.095 380.299C352.111 402.298 321.895 419.297 291.25 410.197C283.116 407.787 275.352 404.078 266.909 402.778C252.171 400.508 237.592 405.207 224.233 409.967C205.168 416.787 186.753 420.587 165.959 418.027C140.48 414.897 114.151 396.468 110.294 371.529C105.348 339.531 135.064 315.772 134.894 282.434C134.824 257.865 118.267 232.677 126.281 209.318C133.136 189.319 150.432 178.319 165.65 164.86C178.66 153.104 189.958 139.58 199.213 124.682C205.598 114.493 211.443 97.1538 219.407 88.3642C234.905 71.2751 259.145 47.4164 283.366 48.3863Z" stroke="url(#paint23_linear_2300_3756)" stroke-width="2.29" stroke-linecap="round" stroke-linejoin="round"/>
<path opacity="0.14" d="M285.145 40.1468C307.647 41.3068 328.86 77.9148 344.208 93.794C358.876 108.953 368.698 128.792 385.435 141.791C394.238 148.651 404.92 153.691 410.735 163.24C420.787 179.729 411.944 202.078 420.477 219.417C427.352 233.337 444.009 240.526 447.815 255.655C450.264 265.365 446.646 275.774 441.151 283.964C435.655 292.154 428.371 298.893 421.786 306.353C402.901 327.952 391.131 355.35 372.935 377.539C354.31 400.278 324.554 418.157 294.607 407.677C286.044 404.678 277.861 400.408 268.878 398.958C253.22 396.438 237.723 402.478 223.604 408.757C203.43 417.757 183.896 423.367 161.304 421.757C133.786 419.757 104.909 399.998 102.59 372.759C99.5928 337.821 137.563 313.292 138.742 277.694C139.641 251.366 119.937 224.387 129.929 199.958C137.812 180.699 157.846 172.22 174.283 160.19C188.167 149.845 199.699 136.669 208.116 121.533C213.662 111.603 218.108 92.664 224.943 83.7345C238.592 65.9455 262.103 38.9869 285.145 40.1468Z" stroke="url(#paint24_linear_2300_3756)" stroke-width="2.14" stroke-linecap="round" stroke-linejoin="round"/>
<path opacity="0.08" d="M213.823 73.545C248.526 84.7745 276.773 78.8948 309.207 70.5452C335.077 63.8556 381.929 45.3865 406.36 56.7159C430.441 67.8953 440.083 91.9641 440.912 118.403C441.182 127.092 430.631 154.331 432.329 162.95C435.477 178.949 449.406 190.239 457.05 204.608C461.237 212.677 463.43 221.633 463.445 230.726C463.461 239.818 461.299 248.782 457.14 256.865C452.883 264.865 446.538 272.135 444.999 281.144C442.291 297.093 473.217 310.793 479.282 325.522C480.851 329.322 482.03 333.441 481.49 337.521C480.801 342.771 477.413 347.261 473.886 351.2C464.174 362.02 433.858 370.909 420.699 376.879C398.576 386.878 371.937 389.538 355.051 407.217C343.16 419.677 335.806 439.456 318.84 442.166C303.972 444.535 291.771 432.006 277.872 426.636C265.272 420.867 248.276 433.116 236.765 437.716C220.878 444.115 204.967 450.448 189.033 456.715C164.962 466.154 139.163 475.604 113.873 470.084C103.346 467.687 93.5436 462.806 85.284 455.849C77.0244 448.891 70.5466 440.058 66.3907 430.086C57.7875 409.027 60.5653 375.839 79.88 362.54C89.4523 355.96 101.473 353.85 110.566 346.421C122.066 337.021 125.614 319.122 120.358 304.803C113.783 286.804 98.0355 278.074 82.8776 268.605C62.3194 255.826 44.1226 239.588 29.0904 220.607C21.7962 211.348 15.2614 201.228 11.9241 189.849C8.58673 178.469 8.82654 165.52 14.6919 155.131C28.351 130.942 68.2592 137.132 91.0511 136.832C105.21 136.622 121.557 139.182 135.666 135.732C141.661 134.282 147.496 130.632 150.014 125.052C153.012 118.443 150.853 111.053 150.674 104.053C150.54 93.8579 154.441 84.0232 161.525 76.6949C178.132 59.4458 194.559 67.3054 213.823 73.545Z" stroke="url(#paint25_linear_2300_3756)" stroke-width="2.08" stroke-linecap="round" stroke-linejoin="round"/>
<path opacity="0.15" d="M218.879 74.8749C252.442 85.0943 279.91 79.9546 311.225 72.985C336.565 67.3553 381 51.5161 404.701 62.9855C427.683 74.1449 437.145 97.1837 438.834 122.492C439.413 131.132 430.211 156.791 432.039 165.44C435.287 180.849 448.256 192.029 455.431 206.048C459.362 213.906 461.439 222.562 461.501 231.35C461.563 240.137 459.61 248.822 455.79 256.735C451.883 264.555 446.058 271.644 444.599 280.344C442.021 295.943 470.119 309.472 475.445 323.872C476.803 327.552 477.833 331.521 477.273 335.491C476.544 340.551 473.336 344.901 469.999 348.76C460.666 359.57 432.459 368.659 419.779 374.879C398.846 385.148 373.546 388.358 357.129 405.327C345.568 417.327 338.144 435.896 321.817 438.796C307.548 441.336 295.678 430.146 282.208 425.486C269.968 420.437 253.691 431.846 242.42 436.206C227.032 442.205 211.601 448.085 196.127 453.845C172.706 462.494 147.746 470.954 123.325 465.534C113.187 463.191 103.72 458.555 95.6508 451.983C87.5811 445.41 81.1231 437.074 76.7721 427.616C67.8492 407.617 69.2981 376.449 86.1147 363.33C94.458 356.85 105.1 354.44 113.023 347.12C123.105 337.881 125.943 320.802 120.777 306.973C114.342 289.703 99.5739 280.814 85.4452 271.254C66.2184 258.373 49.3801 242.24 35.6848 223.577C28.9502 214.307 23.0749 204.218 20.1472 193.019C17.2195 181.819 17.6492 169.16 23.2847 158.9C36.4342 134.902 73.9843 138.961 96.1367 137.382C109.776 136.382 125.533 138.142 139.292 134.382C145.108 132.812 150.803 129.242 153.471 123.932C156.629 117.633 155.09 110.653 155.379 103.993C155.942 94.2169 160.166 85.012 167.21 78.2147C183.697 62.2155 199.954 69.1152 218.879 74.8749Z" stroke="url(#paint26_linear_2300_3756)" stroke-width="2.15" stroke-linecap="round" stroke-linejoin="round"/>
<path opacity="0.23" d="M223.934 76.2149C256.359 85.4344 283.087 81.0246 313.243 75.4749C338.053 70.9052 380.07 57.6959 403.042 69.3652C424.954 80.5046 434.247 102.513 436.755 126.692C437.644 135.292 429.76 159.37 431.759 168.04C435.106 182.879 447.117 193.939 453.821 207.588C457.499 215.234 459.46 223.592 459.569 232.077C459.678 240.562 457.931 248.968 454.451 256.705C450.904 264.325 445.578 271.255 444.209 279.654C441.761 294.913 467.041 308.263 471.617 322.332C472.766 325.902 473.615 329.721 473.056 333.531C472.297 338.411 469.259 342.611 466.131 346.391C457.139 357.2 431.059 366.48 418.879 372.949C399.125 383.439 375.164 387.248 359.227 403.518C347.996 414.977 340.452 432.416 324.814 435.516C311.125 438.206 299.594 428.376 286.574 424.406C274.714 420.077 259.136 430.636 248.115 434.766C233.207 440.366 218.269 445.845 203.261 451.055C180.489 458.925 156.368 466.404 132.817 461.055C123.06 458.768 113.92 454.373 106.039 448.179C98.1579 441.985 91.7257 434.141 87.1933 425.196C77.8907 406.307 78.0705 377.099 92.3791 364.2C99.4835 357.82 108.696 355.1 115.521 347.891C124.174 338.811 126.312 322.552 121.226 309.213C114.931 292.633 101.152 283.624 88.0426 273.964C70.1143 260.97 54.6045 244.928 42.2191 226.567C36.054 217.287 30.8381 207.228 28.3201 196.209C25.8022 185.189 26.4117 172.82 31.8273 162.69C44.4573 138.992 79.6493 140.811 101.172 137.972C114.302 136.232 129.45 137.122 142.859 133.092C148.514 131.412 154.07 127.932 156.848 122.872C160.175 116.873 159.246 110.303 159.995 104.023C161.288 94.6882 165.857 86.1176 172.885 79.8447C189.252 64.9455 205.349 70.9252 223.934 76.2149Z" stroke="url(#paint27_linear_2300_3756)" stroke-width="2.23" stroke-linecap="round" stroke-linejoin="round"/>
<path opacity="0.31" d="M228.989 77.5547C260.254 85.7743 286.284 82.1245 315.261 77.9547C339.561 74.4649 379.14 63.8655 401.372 75.7148C422.215 86.8242 431.408 107.833 434.675 130.862C435.895 139.421 429.38 161.86 431.468 170.61C434.885 184.879 445.947 195.818 452.192 209.098C455.62 216.532 457.469 224.596 457.624 232.782C457.779 240.968 456.235 249.097 453.091 256.655C449.913 264.065 445.097 270.845 443.798 278.934C441.47 293.843 463.952 307.013 467.779 320.762C468.92 324.233 469.282 327.914 468.838 331.541C468.049 336.231 465.181 340.301 462.253 344.001C453.69 354.79 429.66 364.26 417.969 370.999C399.394 381.699 376.782 386.108 361.314 401.678C350.423 412.677 342.789 428.916 327.811 432.186C314.711 435.036 303.51 426.556 290.94 423.296C279.449 419.687 264.581 429.396 253.809 433.296C239.401 438.496 224.943 443.535 210.394 448.225C188.272 455.305 164.99 461.804 142.308 456.575C132.926 454.335 124.111 450.169 116.421 444.343C108.731 438.517 102.334 431.156 97.6339 422.727C87.9516 404.927 86.8525 377.729 98.6331 364.97C104.508 358.69 112.302 355.67 118.008 348.58C125.242 339.651 126.661 324.212 121.665 311.362C115.51 295.473 102.68 286.364 90.6195 276.594C74.3125 263.495 59.774 247.746 48.7928 229.507C43.2072 220.207 38.6808 210.208 36.5225 199.338C34.3643 188.469 35.2136 176.43 40.3995 166.43C52.5298 142.961 85.3637 142.611 106.237 138.492C118.857 136.002 133.415 136.052 146.475 131.732C151.961 129.932 157.376 126.532 160.334 121.732C163.831 116.043 163.521 109.853 164.73 103.973C166.399 95.7238 171.385 87.5242 178.629 81.3845C194.797 67.6853 210.734 72.745 228.989 77.5547Z" stroke="url(#paint28_linear_2300_3756)" stroke-width="2.31" stroke-linecap="round" stroke-linejoin="round"/>
<path opacity="0.38" d="M234.046 78.8846C264.162 86.1242 289.482 83.2144 317.29 80.4445C341.081 78.0547 378.242 70.0351 399.715 82.0644C419.479 93.1239 428.612 113.143 432.608 135.062C434.157 143.601 428.951 164.49 431.179 173.22C434.677 186.929 444.799 197.728 450.574 210.648C456.978 225.233 457.398 241.753 451.743 256.645C448.925 263.845 444.599 270.464 443.4 278.264C441.201 292.823 460.876 305.793 463.923 319.262C464.847 322.637 465.075 326.165 464.593 329.631C463.774 334.121 461.086 338.061 458.348 341.631C450.174 352.43 428.232 362.06 417.041 369.059C399.635 379.919 378.412 384.958 363.423 399.818C352.862 410.287 345.138 425.386 330.829 428.816C318.319 431.816 307.448 424.706 295.328 422.136C284.217 419.247 270.058 428.136 259.516 431.776C245.617 436.596 231.638 441.185 217.55 445.365C196.077 451.655 173.635 457.175 151.822 452.045C133.623 447.616 117.904 436.182 108.077 420.227C98.0148 403.527 95.6167 378.229 104.959 365.749C109.586 359.55 115.951 356.23 120.557 349.26C126.352 340.471 127.092 325.882 122.176 313.522C116.18 298.323 104.35 289.074 93.2786 279.214C78.3504 266.005 65.111 250.386 55.4287 232.436C50.2144 223.11 46.6163 212.967 44.7872 202.438C43.1085 191.679 44.0678 179.999 49.0338 170.12C60.6545 146.901 91.1003 144.381 111.364 138.971C123.465 135.742 137.423 134.912 150.133 130.322C155.459 128.402 160.735 125.102 163.832 120.562C167.509 115.193 167.829 109.393 169.468 103.903C171.786 96.2037 177.092 88.6341 184.396 82.9044C200.323 70.4151 216.111 74.5748 234.046 78.8846Z" stroke="url(#paint29_linear_2300_3756)" stroke-width="2.38" stroke-linecap="round" stroke-linejoin="round"/>
<path opacity="0.46" d="M239.102 80.2147C268.079 86.4843 292.71 84.3744 319.308 82.9245C342.61 81.6446 377.262 76.1749 398.046 88.3942C416.751 99.3936 425.864 118.453 430.53 139.182C432.438 147.691 428.531 166.99 430.89 175.74C434.447 188.879 443.639 199.558 448.945 212.118C454.834 226.252 455.353 242.054 450.404 256.545C447.936 263.545 444.109 270.005 442.99 277.544C440.932 291.753 457.808 304.543 460.086 317.662C460.79 320.933 460.885 324.306 460.366 327.612C459.517 331.911 457.009 335.721 454.471 339.241C446.687 350.04 426.823 359.82 416.131 367.11C399.884 378.169 379.98 383.859 365.452 398.008C355.23 408.007 347.406 421.917 333.757 425.556C321.836 428.736 311.305 422.967 299.634 421.087C288.893 418.927 275.453 426.966 265.152 430.366C251.752 434.796 238.253 438.956 224.624 442.606C203.8 448.115 182.198 452.605 161.254 447.605C143.816 443.276 128.579 432.676 118.448 417.827C107.987 402.218 104.33 378.949 111.174 366.61C114.561 360.51 119.538 356.89 123.005 350.04C127.371 341.401 127.401 327.632 122.575 315.762C116.71 301.253 105.878 291.883 95.8164 281.934C82.2772 268.615 70.3467 253.106 61.9634 235.466C57.3844 226.093 54.3477 216.041 52.9705 205.698C51.7015 195.109 52.8506 183.699 57.5769 173.99C68.698 150.991 96.7656 146.351 116.4 139.632C127.991 135.632 141.38 133.962 153.72 129.092C158.876 127.092 164.012 123.832 167.259 119.553C171.096 114.493 172.006 109.093 174.134 103.983C177.082 96.8338 182.707 89.9041 190.121 84.5744C205.839 73.135 221.536 76.4049 239.102 80.2147Z" stroke="url(#paint30_linear_2300_3756)" stroke-width="2.46" stroke-linecap="round" stroke-linejoin="round"/>
<path opacity="0.54" d="M244.158 81.5646C271.946 86.8843 295.966 84.2644 321.326 85.4144C344.118 86.4143 376.382 82.3245 396.386 94.7539C414.022 105.753 423.165 123.752 428.451 143.361C430.739 151.831 428.081 169.54 430.599 178.359C434.216 190.939 442.49 201.478 447.326 213.678C452.69 227.365 453.299 242.46 449.055 256.535C446.946 263.315 443.609 269.635 442.59 276.824C440.591 290.684 454.75 303.273 456.239 316.092C456.733 319.252 456.703 322.472 456.149 325.622C455.26 329.731 452.931 333.411 450.583 336.851C443.209 347.661 425.403 357.57 415.212 365.15C400.134 376.369 381.588 382.719 367.529 396.148C357.647 405.607 349.724 418.377 336.744 422.217C325.413 425.546 315.211 421.127 304 419.957C293.628 418.517 280.898 425.716 270.836 428.876C257.937 432.876 244.907 436.626 231.748 439.756C211.574 444.475 190.78 448.035 170.726 443.095C154.038 438.858 139.282 429.079 128.87 415.357C118.008 400.848 113.082 379.559 117.439 367.359C119.587 361.36 123.164 357.44 125.492 350.7C128.49 342.221 127.77 329.271 123.014 317.892C117.299 304.073 107.447 294.583 98.4138 284.544C86.2535 271.105 75.6519 255.705 68.5376 238.376C64.587 228.957 62.0969 218.989 61.1535 208.818C60.3041 198.378 61.6331 187.319 66.1495 177.699C76.751 154.971 102.461 148.181 121.465 140.131C132.537 135.452 145.316 132.872 157.317 127.702C162.313 125.552 167.309 122.422 170.696 118.403C174.693 113.643 176.232 108.633 178.82 103.923C182.963 96.6996 188.791 90.5861 195.806 86.1043C211.344 75.8449 226.872 78.2147 244.158 81.5646Z" stroke="url(#paint31_linear_2300_3756)" stroke-width="2.54" stroke-linecap="round" stroke-linejoin="round"/>
<path opacity="0.62" d="M249.213 82.8944C275.832 87.2841 299.173 86.7741 323.344 87.8941C345.676 88.894 375.462 88.4441 394.717 101.093C411.304 111.983 420.517 129.092 426.372 147.521C429.05 155.95 427.641 172.08 430.369 180.879C434.016 192.879 441.36 203.308 445.757 215.137C450.598 228.381 451.295 242.786 447.755 256.435C446.006 262.995 443.169 269.175 442.239 276.054C440.411 289.573 451.742 301.953 452.451 314.462C452.733 317.509 452.571 320.581 451.972 323.582C451.042 327.501 448.904 331.051 446.746 334.401C439.751 345.231 424.024 355.26 414.351 363.14C400.413 374.499 383.246 381.529 369.657 394.268C360.105 403.267 352.091 414.837 339.781 418.857C329.029 422.356 319.167 419.287 308.406 418.807C298.414 418.087 286.423 424.466 276.571 427.366C264.171 431.036 251.591 434.296 238.921 436.906C219.397 440.835 199.473 443.405 180.258 438.566C164.284 434.423 149.978 425.449 139.291 412.867C128.02 399.458 121.854 380.199 123.703 368.199C124.612 362.31 126.781 358.07 127.99 351.45C129.508 343.131 128.129 330.991 123.463 320.102C117.888 306.973 109.025 297.373 101.001 287.224C90.2196 273.674 81.017 258.365 75.1216 241.366C71.8057 231.907 69.8673 222.019 69.3662 212.008C68.9266 201.738 70.4354 191.009 74.712 181.499C84.8139 159.01 108.155 150.111 126.531 140.721C137.092 135.322 149.273 131.852 160.923 126.402C165.849 124.212 170.33 121.134 174.143 117.323C178.319 112.883 180.458 108.263 183.505 103.933C188.304 97.33 194.43 91.8051 201.491 87.7141C216.839 78.5346 232.237 80.1045 249.213 82.8944Z" stroke="url(#paint32_linear_2300_3756)" stroke-width="2.62" stroke-linecap="round" stroke-linejoin="round"/>
<path opacity="0.69" d="M254.269 84.2145C279.709 87.6743 302.391 88.0043 325.373 90.3642C347.205 92.614 374.564 94.5539 393.059 107.433C408.587 118.243 417.909 134.332 424.294 151.681C427.382 160.06 427.192 174.62 430.029 183.439C433.717 194.899 440.181 205.168 444.088 216.637C448.417 229.442 449.2 243.181 446.357 256.395C444.958 262.745 442.629 268.765 441.79 275.344C440.091 288.514 448.665 300.693 448.565 312.902C448.629 315.827 448.337 318.748 447.695 321.602C446.583 325.293 444.94 328.803 442.819 332.021C436.265 342.861 422.545 353.02 413.383 361.19C400.583 372.659 384.806 380.399 371.696 392.428C362.473 400.898 354.36 411.327 342.719 415.537C332.567 419.197 323.035 417.477 312.743 417.707C303.121 417.707 291.83 423.247 282.227 425.906C270.305 429.24 258.223 431.97 246.026 434.086C227.151 437.236 208.056 438.826 189.721 434.086C174.477 430.024 160.647 421.835 149.753 410.417C138.072 398.118 130.668 380.799 130.018 368.999C129.699 363.21 130.458 358.68 130.538 352.16C130.628 344.001 128.54 332.681 123.963 322.282C118.528 309.853 110.644 300.123 103.649 289.884C94.2469 276.224 86.3832 260.995 81.7469 244.336C79.0724 234.855 77.6712 225.059 77.5802 215.208C77.4135 204.922 79.3588 194.712 83.2956 185.209C92.888 162.97 113.881 151.971 131.597 141.211C141.659 135.112 153.24 130.752 164.571 125.002C169.295 122.698 173.671 119.739 177.571 116.213C181.917 112.073 184.665 107.843 188.172 103.913C193.596 97.9596 200.022 93.0047 207.157 89.2742C222.315 81.2146 237.613 81.9646 254.269 84.2145Z" stroke="url(#paint33_linear_2300_3756)" stroke-width="2.69" stroke-linecap="round" stroke-linejoin="round"/>
<path opacity="0.77" d="M259.327 85.5743C283.598 88.1342 305.61 89.3141 327.393 92.8739C348.736 96.3638 373.676 100.684 391.402 113.803C405.88 124.522 415.383 139.611 422.227 155.871C425.744 164.19 426.734 177.189 429.741 186.029C433.458 196.938 439.024 207.028 442.471 218.167C446.271 230.519 447.14 243.588 445.009 256.335C444.01 262.475 442.161 268.335 441.392 274.624C439.853 287.454 445.639 299.433 444.719 311.332C444.579 314.13 444.16 316.907 443.47 319.622C442.365 323.125 440.842 326.483 438.934 329.621C432.809 340.491 421.098 350.7 412.475 359.23C400.784 370.809 386.416 379.229 373.776 390.588C364.883 398.588 356.689 407.817 345.698 412.207C336.126 416.027 326.933 415.667 317.071 416.587C307.828 417.307 297.247 422.027 287.884 424.426C276.443 427.393 264.835 429.673 253.122 431.256C234.896 433.616 216.651 434.256 199.165 429.576C184.604 425.604 171.211 418.186 160.116 407.947C148.006 396.768 139.393 381.409 136.225 369.789C134.837 364.212 133.75 358.564 132.968 352.87C131.304 343.072 128.41 333.524 124.355 324.452C119.069 312.712 112.164 302.863 106.179 292.523C97.8302 278.5 91.7847 263.227 88.2732 247.286C86.264 237.758 85.4284 228.019 85.7852 218.287C86.0738 208.236 88.1338 198.314 91.8704 188.979C100.953 166.98 119.608 153.901 136.665 141.781C146.227 134.982 157.208 129.782 168.14 123.682C172.708 121.238 177.025 118.351 181.029 115.063C185.556 111.233 188.913 107.403 192.88 103.863C198.877 98.5841 205.608 94.2052 212.864 90.864C227.792 83.8544 242.99 83.8444 259.327 85.5743Z" stroke="url(#paint34_linear_2300_3756)" stroke-width="2.77" stroke-linecap="round" stroke-linejoin="round"/>
<path opacity="0.85" d="M264.382 86.9043C287.483 88.5942 308.816 90.6441 329.45 95.3639C350.283 100.134 372.835 106.773 389.772 120.153C403.221 130.762 412.843 144.841 420.187 160.03C424.184 168.29 426.303 179.749 429.49 188.599C433.227 198.958 437.913 208.948 440.891 219.687C444.168 231.593 445.122 244.019 443.699 256.285C443.009 262.205 441.7 267.945 441.021 273.904C439.622 286.384 442.67 298.173 440.921 309.763C440.57 312.423 440.022 315.053 439.282 317.632C438.184 320.951 436.783 324.161 435.096 327.222C429.41 338.121 419.668 348.4 411.594 357.28C401.003 368.939 388.063 378.109 375.893 388.738C367.34 396.208 359.046 404.308 348.724 408.887C339.732 412.887 330.879 413.887 321.476 415.477C312.593 416.917 302.731 420.817 293.608 422.957C282.638 425.542 271.505 427.372 260.285 428.436C242.709 430.006 225.313 429.636 208.696 425.076C194.799 421.186 181.833 414.523 170.576 405.487C158.895 395.938 149.332 384.056 142.499 370.599C139.8 365.091 137.463 359.413 135.504 353.6C132.409 344.442 128.851 335.448 124.843 326.652C119.697 315.602 113.781 305.653 108.855 295.203C101.948 281.027 97.2503 265.875 94.9265 250.276C93.5879 240.747 93.2997 231.099 94.0672 221.507C94.803 211.673 96.9778 202 100.522 192.799C109.105 171.05 125.442 155.901 141.809 142.391C150.892 134.912 161.254 128.752 171.785 122.392C176.174 119.822 180.427 117.025 184.525 114.013C189.211 110.483 193.188 107.013 197.615 103.893C204.157 99.2652 211.22 95.4224 218.658 92.444C233.256 86.4843 248.354 85.7344 264.382 86.9043Z" stroke="url(#paint35_linear_2300_3756)" stroke-width="2.85" stroke-linecap="round" stroke-linejoin="round"/>
<path opacity="0.92" d="M269.438 88.2144C291.36 89.0444 311.984 91.9642 331.388 97.8139C351.682 103.924 371.886 112.813 388.033 126.462C400.463 136.972 410.255 150.001 418.009 164.17C422.486 172.33 425.723 182.279 429.11 191.169C432.847 200.978 436.664 210.818 439.162 221.167C441.917 232.616 442.961 244.41 442.26 256.166C441.9 261.875 441.131 267.455 440.521 273.165C439.252 285.294 439.582 296.893 436.984 308.163C436.405 310.643 435.785 313.163 434.986 315.612C433.894 318.752 432.609 321.821 431.139 324.802C425.913 335.731 418.149 346.051 410.615 355.29C401.083 367.03 389.632 376.939 377.901 386.859C369.688 393.858 361.294 400.758 351.642 405.528C343.249 409.667 334.716 412.007 325.763 414.327C317.259 416.487 308.117 419.577 299.224 421.447C288.722 423.668 278.06 425.049 267.339 425.577C250.413 426.367 233.846 425.007 218.108 420.577C204.846 416.78 192.288 410.849 180.928 403.018C168.521 394.336 157.641 383.651 148.734 371.399C144.752 365.952 141.146 360.239 137.942 354.3C133.796 346.601 129.559 337.751 125.232 328.812C120.236 318.462 115.24 308.373 111.353 297.813C105.917 283.5 102.579 268.475 101.441 253.206C100.766 243.684 101.023 234.119 102.211 224.647C103.38 215.043 105.67 205.609 109.035 196.539C117.099 175.03 131.138 157.811 146.815 142.922C155.644 134.765 165.203 127.438 175.372 121.033C179.549 118.333 183.826 115.603 187.942 112.883C192.809 109.673 197.395 106.623 202.281 103.884C209.313 99.9162 216.699 96.6121 224.343 94.0141C238.732 89.0944 253.73 87.6544 269.438 88.2144Z" stroke="url(#paint36_linear_2300_3756)" stroke-width="2.92" stroke-linecap="round" stroke-linejoin="round"/>
<path d="M392.214 373.982C457.228 308.921 457.228 203.434 392.214 138.373C327.201 73.3108 221.793 73.3108 156.78 138.373C91.7663 203.434 91.7663 308.921 156.78 373.982C221.793 439.044 327.201 439.044 392.214 373.982Z" stroke="url(#paint37_linear_2300_3756)" stroke-width="3" stroke-linecap="round" stroke-linejoin="round"/>
<path d="M282.91 297.175C287.597 301.862 287.597 309.46 282.91 314.146C278.224 318.832 270.626 318.832 265.94 314.146C261.254 309.46 261.254 301.862 265.94 297.175C270.626 292.489 278.224 292.489 282.91 297.175Z" fill="url(#paint38_linear_2300_3756)"/>
<path d="M282.91 201.515C287.597 206.201 287.597 213.799 282.91 218.485C278.224 223.172 270.626 223.172 265.94 218.485C261.254 213.799 261.254 206.201 265.94 201.515C270.626 196.828 278.224 196.828 282.91 201.515Z" fill="url(#paint39_linear_2300_3756)"/>
<path d="M236.109 245.506C229.707 247.222 223.127 243.423 221.412 237.021C219.697 230.619 223.496 224.039 229.897 222.324C236.299 220.609 242.879 224.408 244.594 230.809C246.309 237.211 242.51 243.791 236.109 245.506Z" fill="url(#paint40_linear_2300_3756)"/>
<path d="M318.953 293.337C312.552 295.052 305.972 291.253 304.256 284.851C302.541 278.45 306.34 271.87 312.742 270.154C319.143 268.439 325.723 272.238 327.439 278.64C329.154 285.041 325.355 291.621 318.953 293.337Z" fill="url(#paint41_linear_2300_3756)"/>
<path d="M244.594 284.851C242.879 291.253 236.299 295.052 229.897 293.337C223.496 291.621 219.697 285.041 221.412 278.64C223.127 272.238 229.707 268.439 236.109 270.154C242.51 271.87 246.309 278.45 244.594 284.851Z" fill="url(#paint42_linear_2300_3756)"/>
<path d="M327.439 237.021C325.723 243.423 319.143 247.222 312.742 245.506C306.34 243.791 302.541 237.211 304.256 230.809C305.972 224.408 312.552 220.609 318.953 222.324C325.355 224.039 329.154 230.619 327.439 237.021Z" fill="url(#paint43_linear_2300_3756)"/>
</g>
<defs>
<radialGradient id="paint0_radial_2300_3756" cx="0" cy="0" r="1" gradientUnits="userSpaceOnUse" gradientTransform="translate(142.265 118.542) scale(147.353 147.462)">
<stop stop-color="#FF00FF"/>
<stop offset="0.03" stop-color="#FF00FF" stop-opacity="0.94"/>
<stop offset="0.14" stop-color="#FF00FF" stop-opacity="0.72"/>
<stop offset="0.26" stop-color="#FF00FF" stop-opacity="0.53"/>
<stop offset="0.37" stop-color="#FF00FF" stop-opacity="0.36"/>
<stop offset="0.49" stop-color="#FF00FF" stop-opacity="0.23"/>
<stop offset="0.61" stop-color="#FF00FF" stop-opacity="0.13"/>
<stop offset="0.73" stop-color="#FF00FF" stop-opacity="0.06"/>
<stop offset="0.86" stop-color="#FF00FF" stop-opacity="0.01"/>
<stop offset="1" stop-color="#FF00FF" stop-opacity="0"/>
</radialGradient>
<radialGradient id="paint1_radial_2300_3756" cx="0" cy="0" r="1" gradientUnits="userSpaceOnUse" gradientTransform="translate(147.062 383.748) scale(181.066 181.2)">
<stop stop-color="#FF00FF"/>
<stop offset="0.03" stop-color="#FF00FF" stop-opacity="0.94"/>
<stop offset="0.14" stop-color="#FF00FF" stop-opacity="0.72"/>
<stop offset="0.26" stop-color="#FF00FF" stop-opacity="0.53"/>
<stop offset="0.37" stop-color="#FF00FF" stop-opacity="0.36"/>
<stop offset="0.49" stop-color="#FF00FF" stop-opacity="0.23"/>
<stop offset="0.61" stop-color="#FF00FF" stop-opacity="0.13"/>
<stop offset="0.73" stop-color="#FF00FF" stop-opacity="0.06"/>
<stop offset="0.86" stop-color="#FF00FF" stop-opacity="0.01"/>
<stop offset="1" stop-color="#FF00FF" stop-opacity="0"/>
</radialGradient>
<linearGradient id="paint2_linear_2300_3756" x1="155.72" y1="137.317" x2="393.447" y2="374.868" gradientUnits="userSpaceOnUse">
<stop stop-color="#FF68FF"/>
<stop offset="1" stop-color="#00ADF3"/>
</linearGradient>
<linearGradient id="paint3_linear_2300_3756" x1="152.44" y1="136.442" x2="394.087" y2="377.919" gradientUnits="userSpaceOnUse">
<stop stop-color="#FF62FF"/>
<stop offset="1" stop-color="#00A9F4"/>
</linearGradient>
<linearGradient id="paint4_linear_2300_3756" x1="149.332" y1="135.362" x2="395.229" y2="381.076" gradientUnits="userSpaceOnUse">
<stop stop-color="#FF5BFF"/>
<stop offset="1" stop-color="#00A4F4"/>
</linearGradient>
<linearGradient id="paint5_linear_2300_3756" x1="146.374" y1="134.112" x2="396.671" y2="384.223" gradientUnits="userSpaceOnUse">
<stop stop-color="#FF55FF"/>
<stop offset="1" stop-color="#00A0F5"/>
</linearGradient>
<linearGradient id="paint6_linear_2300_3756" x1="143.556" y1="132.702" x2="398.322" y2="387.289" gradientUnits="userSpaceOnUse">
<stop stop-color="#FF4EFF"/>
<stop offset="1" stop-color="#009BF6"/>
</linearGradient>
<linearGradient id="paint7_linear_2300_3756" x1="140.838" y1="131.192" x2="400.135" y2="390.285" gradientUnits="userSpaceOnUse">
<stop stop-color="#FF48FF"/>
<stop offset="1" stop-color="#0097F7"/>
</linearGradient>
<linearGradient id="paint8_linear_2300_3756" x1="138.222" y1="129.582" x2="402.048" y2="393.212" gradientUnits="userSpaceOnUse">
<stop stop-color="#FF41FF"/>
<stop offset="1" stop-color="#0093F8"/>
</linearGradient>
<linearGradient id="paint9_linear_2300_3756" x1="135.665" y1="127.902" x2="404.05" y2="396.088" gradientUnits="userSpaceOnUse">
<stop stop-color="#FF3BFF"/>
<stop offset="1" stop-color="#008EF8"/>
</linearGradient>
<linearGradient id="paint10_linear_2300_3756" x1="133.156" y1="126.172" x2="406.112" y2="398.915" gradientUnits="userSpaceOnUse">
<stop stop-color="#FF34FF"/>
<stop offset="1" stop-color="#008AF9"/>
</linearGradient>
<linearGradient id="paint11_linear_2300_3756" x1="130.698" y1="124.392" x2="408.224" y2="401.711" gradientUnits="userSpaceOnUse">
<stop stop-color="#FF2EFF"/>
<stop offset="1" stop-color="#0086FA"/>
</linearGradient>
<linearGradient id="paint12_linear_2300_3756" x1="128.27" y1="122.572" x2="410.375" y2="404.478" gradientUnits="userSpaceOnUse">
<stop stop-color="#FF27FF"/>
<stop offset="1" stop-color="#0081FB"/>
</linearGradient>
<linearGradient id="paint13_linear_2300_3756" x1="125.852" y1="120.742" x2="412.557" y2="407.224" gradientUnits="userSpaceOnUse">
<stop stop-color="#FF21FF"/>
<stop offset="1" stop-color="#007DFB"/>
</linearGradient>
<linearGradient id="paint14_linear_2300_3756" x1="123.454" y1="118.893" x2="414.748" y2="409.961" gradientUnits="userSpaceOnUse">
<stop stop-color="#FF1AFF"/>
<stop offset="1" stop-color="#0079FC"/>
</linearGradient>
<linearGradient id="paint15_linear_2300_3756" x1="121.066" y1="117.033" x2="416.95" y2="412.697" gradientUnits="userSpaceOnUse">
<stop stop-color="#FF14FF"/>
<stop offset="1" stop-color="#0074FD"/>
</linearGradient>
<linearGradient id="paint16_linear_2300_3756" x1="118.686" y1="115.173" x2="419.16" y2="415.424" gradientUnits="userSpaceOnUse">
<stop stop-color="#FF0DFF"/>
<stop offset="1" stop-color="#0070FE"/>
</linearGradient>
<linearGradient id="paint17_linear_2300_3756" x1="116.318" y1="113.293" x2="421.392" y2="418.14" gradientUnits="userSpaceOnUse">
<stop stop-color="#FF07FF"/>
<stop offset="1" stop-color="#006BFE"/>
</linearGradient>
<linearGradient id="paint18_linear_2300_3756" x1="155.72" y1="137.317" x2="393.447" y2="374.868" gradientUnits="userSpaceOnUse">
<stop stop-color="#FF68FF"/>
<stop offset="1" stop-color="#00ADF3"/>
</linearGradient>
<linearGradient id="paint19_linear_2300_3756" x1="134.458" y1="175.966" x2="415.85" y2="341.265" gradientUnits="userSpaceOnUse">
<stop stop-color="#FF59FF"/>
<stop offset="1" stop-color="#00A3F5"/>
</linearGradient>
<linearGradient id="paint20_linear_2300_3756" x1="126.838" y1="196.7" x2="427.511" y2="320.472" gradientUnits="userSpaceOnUse">
<stop stop-color="#FF4AFF"/>
<stop offset="1" stop-color="#0099F6"/>
</linearGradient>
<linearGradient id="paint21_linear_2300_3756" x1="134.443" y1="180.442" x2="403.24" y2="344.978" gradientUnits="userSpaceOnUse">
<stop stop-color="#FF3BFF"/>
<stop offset="1" stop-color="#008FF8"/>
</linearGradient>
<linearGradient id="paint22_linear_2300_3756" x1="170.53" y1="112.264" x2="345.325" y2="403.508" gradientUnits="userSpaceOnUse">
<stop stop-color="#FF2DFF"/>
<stop offset="1" stop-color="#0085FA"/>
</linearGradient>
<linearGradient id="paint23_linear_2300_3756" x1="180.663" y1="84.6968" x2="317.183" y2="415.8" gradientUnits="userSpaceOnUse">
<stop stop-color="#FF1EFF"/>
<stop offset="1" stop-color="#007BFC"/>
</linearGradient>
<linearGradient id="paint24_linear_2300_3756" x1="159.639" y1="105.498" x2="336.743" y2="405.828" gradientUnits="userSpaceOnUse">
<stop stop-color="#FF0FFF"/>
<stop offset="1" stop-color="#0071FD"/>
</linearGradient>
<linearGradient id="paint25_linear_2300_3756" x1="79.3204" y1="87.4243" x2="409.383" y2="417.242" gradientUnits="userSpaceOnUse">
<stop stop-color="#FF10FF"/>
<stop offset="1" stop-color="#006FFE"/>
</linearGradient>
<linearGradient id="paint26_linear_2300_3756" x1="86.7641" y1="92.054" x2="407.697" y2="412.748" gradientUnits="userSpaceOnUse">
<stop stop-color="#FF1FFF"/>
<stop offset="1" stop-color="#0077FD"/>
</linearGradient>
<linearGradient id="paint27_linear_2300_3756" x1="94.1677" y1="96.6738" x2="405.991" y2="408.276" gradientUnits="userSpaceOnUse">
<stop stop-color="#FF2FFF"/>
<stop offset="1" stop-color="#007FFC"/>
</linearGradient>
<linearGradient id="paint28_linear_2300_3756" x1="101.531" y1="101.283" x2="404.305" y2="403.832" gradientUnits="userSpaceOnUse">
<stop stop-color="#FF3FFF"/>
<stop offset="1" stop-color="#0087FB"/>
</linearGradient>
<linearGradient id="paint29_linear_2300_3756" x1="108.836" y1="105.863" x2="402.621" y2="399.419" gradientUnits="userSpaceOnUse">
<stop stop-color="#FF4EFF"/>
<stop offset="1" stop-color="#008FFA"/>
</linearGradient>
<linearGradient id="paint30_linear_2300_3756" x1="116.08" y1="110.403" x2="400.945" y2="395.066" gradientUnits="userSpaceOnUse">
<stop stop-color="#FF5EFF"/>
<stop offset="1" stop-color="#0097F9"/>
</linearGradient>
<linearGradient id="paint31_linear_2300_3756" x1="123.214" y1="114.903" x2="399.289" y2="390.783" gradientUnits="userSpaceOnUse">
<stop stop-color="#FF6EFF"/>
<stop offset="1" stop-color="#00A0F9"/>
</linearGradient>
<linearGradient id="paint32_linear_2300_3756" x1="130.188" y1="119.322" x2="397.684" y2="386.619" gradientUnits="userSpaceOnUse">
<stop stop-color="#FF7EFF"/>
<stop offset="1" stop-color="#00A8F8"/>
</linearGradient>
<linearGradient id="paint33_linear_2300_3756" x1="136.923" y1="123.632" x2="396.159" y2="382.666" gradientUnits="userSpaceOnUse">
<stop stop-color="#FF8DFF"/>
<stop offset="1" stop-color="#00B0F7"/>
</linearGradient>
<linearGradient id="paint34_linear_2300_3756" x1="143.249" y1="127.712" x2="394.856" y2="379.132" gradientUnits="userSpaceOnUse">
<stop stop-color="#FF9DFF"/>
<stop offset="1" stop-color="#00B8F6"/>
</linearGradient>
<linearGradient id="paint35_linear_2300_3756" x1="148.844" y1="131.392" x2="394.331" y2="376.707" gradientUnits="userSpaceOnUse">
<stop stop-color="#FFADFF"/>
<stop offset="1" stop-color="#00C0F5"/>
</linearGradient>
<linearGradient id="paint36_linear_2300_3756" x1="153.11" y1="134.452" x2="393.977" y2="375.14" gradientUnits="userSpaceOnUse">
<stop stop-color="#FFBCFF"/>
<stop offset="1" stop-color="#00C8F4"/>
</linearGradient>
<linearGradient id="paint37_linear_2300_3756" x1="155.722" y1="137.317" x2="393.449" y2="374.868" gradientUnits="userSpaceOnUse">
<stop stop-color="#FFCCFF"/>
<stop offset="1" stop-color="#00D0F3"/>
</linearGradient>
<linearGradient id="paint38_linear_2300_3756" x1="221" y1="317.661" x2="334.432" y2="311.058" gradientUnits="userSpaceOnUse">
<stop stop-color="#A400CD"/>
<stop offset="1" stop-color="#D33883"/>
</linearGradient>
<linearGradient id="paint39_linear_2300_3756" x1="221" y1="317.661" x2="334.432" y2="311.058" gradientUnits="userSpaceOnUse">
<stop stop-color="#A400CD"/>
<stop offset="1" stop-color="#D33883"/>
</linearGradient>
<linearGradient id="paint40_linear_2300_3756" x1="221" y1="317.661" x2="334.432" y2="311.058" gradientUnits="userSpaceOnUse">
<stop stop-color="#A400CD"/>
<stop offset="1" stop-color="#D33883"/>
</linearGradient>
<linearGradient id="paint41_linear_2300_3756" x1="221" y1="317.661" x2="334.432" y2="311.058" gradientUnits="userSpaceOnUse">
<stop stop-color="#A400CD"/>
<stop offset="1" stop-color="#D33883"/>
</linearGradient>
<linearGradient id="paint42_linear_2300_3756" x1="221" y1="317.661" x2="334.432" y2="311.058" gradientUnits="userSpaceOnUse">
<stop stop-color="#A400CD"/>
<stop offset="1" stop-color="#D33883"/>
</linearGradient>
<linearGradient id="paint43_linear_2300_3756" x1="221" y1="317.661" x2="334.432" y2="311.058" gradientUnits="userSpaceOnUse">
<stop stop-color="#A400CD"/>
<stop offset="1" stop-color="#D33883"/>
</linearGradient>
<clipPath id="clip0_2300_3756">
<rect width="586" height="514" fill="white"/>
</clipPath>
</defs>
</svg>
