<svg width="230" height="50" viewBox="0 0 230 50" fill="none" xmlns="http://www.w3.org/2000/svg">
<path d="M96.1349 37.1845H76.3484L101.566 3.78641C102.148 3.00971 101.954 1.94175 101.276 1.45631C100.985 1.26214 100.597 1.16505 100.306 1.16505H63.7393C60.5385 1.16505 57.9197 3.78641 57.9197 6.99029C57.9197 10.1942 60.5385 12.8155 63.7393 12.8155H80.1311L54.816 46.2136C54.234 46.9903 54.428 47.9612 55.1069 48.5437C55.3979 48.8349 55.7859 48.932 56.1739 48.8349H96.0379C99.2387 48.6408 101.76 45.9223 101.566 42.7184C101.469 39.7087 99.0447 37.3786 96.1349 37.1845ZM223.583 1.06796C220.383 1.06796 217.764 3.68932 217.764 6.8932V26.5049L186.241 1.45631C185.562 0.873786 184.495 0.970874 183.913 1.74757C183.622 2.03884 183.525 2.42718 183.525 2.81553V43.0097C183.525 46.2136 186.144 48.8349 189.345 48.8349C192.546 48.8349 195.165 46.2136 195.165 43.0097V23.4951L226.687 48.5437C227.463 49.1262 228.53 49.0291 229.112 48.2524C229.403 47.9612 229.5 47.5728 229.5 47.1845V6.99029C229.403 3.68932 226.784 1.06796 223.583 1.06796ZM140.17 38.2524C126.882 38.2524 116.891 31.2621 116.891 24.9515C116.891 18.6408 126.882 11.6505 140.17 11.6505C153.458 11.6505 163.448 18.6408 163.448 24.9515C163.448 31.2621 153.555 38.2524 140.17 38.2524ZM140.17 0C120.868 0 105.252 11.165 105.252 24.9515C105.252 38.7379 120.868 49.9029 140.17 49.9029C159.471 49.9029 175.087 38.7379 175.087 24.9515C175.087 11.165 159.471 0 140.17 0ZM25.5241 38.3495C18.1527 38.3495 12.2361 32.4272 12.2361 25.0485C12.2361 17.6699 18.1527 11.7476 25.5241 11.7476C32.8956 11.7476 38.8122 17.6699 38.8122 25.0485C38.8122 32.3301 32.8956 38.2524 25.5241 38.3495ZM25.5241 0C11.6542 0 0.5 11.165 0.5 24.9515C0.5 38.7379 11.6542 49.9029 25.4271 50C39.2001 50 50.3543 38.8349 50.4513 25.0485C50.4513 11.165 39.2971 0 25.5241 0Z" fill="#005BFF"/>
</svg>
