<svg width="137" height="30" viewBox="0 0 137 30" fill="none" xmlns="http://www.w3.org/2000/svg">
<path d="M57.2139 22.3107H45.3765L60.4634 2.27184C60.8115 1.80583 60.6955 1.16505 60.2893 0.873786C60.1152 0.757282 59.8831 0.699029 59.709 0.699029H37.8331C35.9183 0.699029 34.3515 2.27184 34.3515 4.19417C34.3515 6.11651 35.9183 7.68932 37.8331 7.68932H47.6396L32.4947 27.7282C32.1465 28.1942 32.2626 28.7767 32.6688 29.1262C32.8429 29.301 33.075 29.3592 33.3071 29.301H57.1559C59.0707 29.1845 60.5794 27.5534 60.4634 25.6311C60.4053 23.8252 58.9547 22.4272 57.2139 22.3107ZM133.46 0.640776C131.546 0.640776 129.979 2.21359 129.979 4.13592V15.9029L111.12 0.873786C110.714 0.524272 110.076 0.582524 109.728 1.04854C109.554 1.2233 109.496 1.45631 109.496 1.68932V25.8058C109.496 27.7282 111.062 29.301 112.977 29.301C114.892 29.301 116.459 27.7282 116.459 25.8058V14.0971L135.317 29.1262C135.781 29.4757 136.42 29.4175 136.768 28.9515C136.942 28.7767 137 28.5437 137 28.3107V4.19417C136.942 2.21359 135.375 0.640776 133.46 0.640776ZM83.5578 22.9515C75.6082 22.9515 69.6315 18.7573 69.6315 14.9709C69.6315 11.1845 75.6082 6.99029 83.5578 6.99029C91.5074 6.99029 97.4841 11.1845 97.4841 14.9709C97.4841 18.7573 91.5654 22.9515 83.5578 22.9515ZM83.5578 0C72.0106 0 62.6684 6.69903 62.6684 14.9709C62.6684 23.2427 72.0106 29.9417 83.5578 29.9417C95.105 29.9417 104.447 23.2427 104.447 14.9709C104.447 6.69903 95.105 0 83.5578 0ZM14.9708 23.0097C10.5608 23.0097 7.02118 19.4563 7.02118 15.0291C7.02118 10.6019 10.5608 7.04854 14.9708 7.04854C19.3808 7.04854 22.9204 10.6019 22.9204 15.0291C22.9204 19.3981 19.3808 22.9515 14.9708 23.0097ZM14.9708 0C6.67302 0 0 6.69903 0 14.9709C0 23.2427 6.67302 29.9417 14.9127 30C23.1525 30 29.8255 23.301 29.8835 15.0291C29.8835 6.69903 23.2105 0 14.9708 0Z" fill="white"/>
</svg>
