<svg width="739" height="620" viewBox="0 0 739 620" fill="none" xmlns="http://www.w3.org/2000/svg">
<g filter="url(#filter0_d_2701_3982)">
<path d="M637.245 80H96.4286C56.9797 80 25 111.98 25 151.429V508.571C25 548.02 56.9797 580 96.4286 580H637.245C676.694 580 708.673 548.02 708.673 508.571V151.429C708.673 111.98 676.694 80 637.245 80Z" fill="url(#paint0_linear_2701_3982)"/>
<path d="M59.3265 419.888C57.9387 419.888 56.755 419.612 55.7652 419.061C54.7754 418.51 54.0101 417.735 53.4693 416.745C52.9387 415.745 52.6836 414.561 52.6836 413.204C52.6836 411.847 52.9489 410.673 53.4693 409.673C54.0101 408.684 54.7754 407.908 55.7652 407.357C56.755 406.806 57.9489 406.531 59.3265 406.531C60.2244 406.531 61.0305 406.663 61.7652 406.918C62.4999 407.163 63.1224 407.52 63.6428 408L62.7448 410.255C62.1836 409.816 61.6428 409.5 61.1326 409.316C60.6326 409.133 60.0611 409.041 59.4285 409.041C58.2142 409.041 57.2856 409.398 56.6326 410.122C55.9999 410.837 55.6734 411.857 55.6734 413.194C55.6734 414.531 55.9897 415.561 56.6326 416.276C57.2856 417 58.2142 417.357 59.4285 417.357C60.0611 417.357 60.6326 417.265 61.1326 417.082C61.6428 416.898 62.1836 416.582 62.7448 416.143L63.6428 418.398C63.1326 418.867 62.4999 419.225 61.7652 419.48C61.0305 419.735 60.2142 419.867 59.3265 419.867V419.888Z" fill="#9747FF"/>
<path d="M65.5203 419.684V410.367H68.0203V416.908H67.4183L72.3367 410.367H74.6122V419.684H72.1122V413.143H72.7142L67.7754 419.684H65.5203Z" fill="#9747FF"/>
<path d="M76.9285 419.959L76.102 417.796C76.4897 417.674 76.8265 417.51 77.0918 417.296C77.3571 417.092 77.5714 416.816 77.7346 416.49C77.9081 416.163 78.0305 415.745 78.102 415.255C78.1734 414.765 78.2142 414.184 78.2142 413.51V410.367H86.0203V419.684H83.2652V412.48H80.7142V413.602C80.7142 414.878 80.5816 415.949 80.306 416.837C80.0407 417.714 79.6224 418.418 79.0714 418.929C78.5203 419.439 77.806 419.786 76.9183 419.959H76.9285Z" fill="#9747FF"/>
<path d="M88.4489 419.684V410.367H90.9489V416.908H90.3469L95.2652 410.367H97.5407V419.684H95.0407V413.143H95.6428L90.704 419.684H88.4489Z" fill="#9747FF"/>
<path d="M99.9489 419.684V410.367H102.684V413.878H103.877L106.398 410.367H109.357L105.98 415.102L105.428 414.225C105.755 414.265 106.061 414.357 106.326 414.52C106.592 414.684 106.847 414.888 107.082 415.143C107.326 415.398 107.551 415.704 107.745 416.061L109.724 419.684H106.786L105.265 416.949C105.143 416.704 105.01 416.51 104.857 416.378C104.724 416.235 104.571 416.133 104.398 416.082C104.224 416.02 104.02 415.99 103.775 415.99H102.694V419.684H99.9489Z" fill="#9747FF"/>
<path d="M114.449 419.888C113.643 419.888 112.928 419.694 112.316 419.296C111.704 418.908 111.224 418.347 110.888 417.622C110.541 416.898 110.377 416.031 110.377 415.01C110.377 413.99 110.551 413.143 110.888 412.418C111.235 411.694 111.704 411.143 112.316 410.765C112.928 410.378 113.643 410.174 114.449 410.174C115.194 410.174 115.867 410.357 116.449 410.725C117.051 411.082 117.439 411.561 117.622 412.173H117.418L117.643 410.357H120.306C120.265 410.765 120.235 411.173 120.194 411.592C120.173 412 120.153 412.398 120.153 412.786V419.674H117.398L117.377 417.929H117.602C117.408 418.52 117.01 418.99 116.428 419.347C115.837 419.704 115.184 419.878 114.449 419.878V419.888ZM115.296 417.796C115.928 417.796 116.449 417.571 116.837 417.112C117.224 416.653 117.428 415.959 117.428 415.02C117.428 414.082 117.235 413.388 116.837 412.949C116.449 412.51 115.928 412.286 115.296 412.286C114.663 412.286 114.143 412.51 113.755 412.949C113.367 413.388 113.163 414.082 113.163 415.02C113.163 415.959 113.357 416.663 113.735 417.112C114.122 417.561 114.643 417.796 115.296 417.796Z" fill="#9747FF"/>
<path d="M124.673 419.684V412.541H121.592V410.378H130.52V412.541H127.418V419.684H124.673Z" fill="#9747FF"/>
<path d="M131.857 419.684V410.367H134.592V413.878H138.265V410.367H141V419.684H138.265V415.99H134.592V419.684H131.857Z" fill="#9747FF"/>
<path d="M147.122 419.888C146.316 419.888 145.602 419.694 144.99 419.296C144.377 418.908 143.898 418.347 143.561 417.622C143.214 416.898 143.051 416.031 143.051 415.01C143.051 413.99 143.224 413.143 143.561 412.418C143.908 411.694 144.377 411.143 144.99 410.765C145.602 410.378 146.316 410.174 147.122 410.174C147.867 410.174 148.541 410.357 149.122 410.725C149.724 411.082 150.112 411.561 150.296 412.173H150.092L150.316 410.357H152.98C152.939 410.765 152.908 411.173 152.867 411.592C152.847 412 152.826 412.398 152.826 412.786V419.674H150.071L150.051 417.929H150.275C150.082 418.52 149.684 418.99 149.102 419.347C148.52 419.704 147.857 419.878 147.122 419.878V419.888ZM147.969 417.796C148.602 417.796 149.122 417.571 149.51 417.112C149.898 416.653 150.102 415.959 150.102 415.02C150.102 414.082 149.908 413.388 149.51 412.949C149.122 412.51 148.602 412.286 147.969 412.286C147.337 412.286 146.816 412.51 146.428 412.949C146.041 413.388 145.837 414.082 145.837 415.02C145.837 415.959 146.031 416.663 146.408 417.112C146.796 417.561 147.316 417.796 147.969 417.796Z" fill="#9747FF"/>
<path d="M154.51 419.684L155.908 417.296C156.153 416.878 156.449 416.551 156.806 416.306C157.173 416.051 157.561 415.918 157.959 415.918H158.439V416.143C157.316 416.143 156.449 415.908 155.847 415.429C155.255 414.939 154.969 414.225 154.969 413.296C154.969 412.367 155.286 411.653 155.908 411.143C156.541 410.633 157.469 410.367 158.684 410.367H163.602V419.684H161.082V416.602H160.235C159.928 416.602 159.653 416.694 159.408 416.878C159.163 417.051 158.959 417.286 158.786 417.571L157.592 419.684H154.51ZM159.235 414.837H161.092V412.133H159.235C158.684 412.133 158.265 412.255 157.99 412.5C157.704 412.735 157.571 413.061 157.571 413.469C157.571 413.908 157.714 414.245 157.99 414.48C158.265 414.714 158.684 414.827 159.235 414.827V414.837Z" fill="#9747FF"/>
<path d="M98.3877 440.092V430.776H107.48V440.092H104.745V432.888H101.122V440.092H98.3877Z" fill="#9747FF"/>
<path d="M109.806 440.367L108.98 438.204C109.367 438.082 109.704 437.918 109.969 437.704C110.235 437.5 110.449 437.225 110.612 436.898C110.786 436.571 110.908 436.153 110.98 435.663C111.051 435.173 111.092 434.592 111.092 433.918V430.776H118.898V440.092H116.143V432.888H113.592V434.01C113.592 435.286 113.459 436.357 113.184 437.245C112.918 438.122 112.5 438.827 111.949 439.337C111.398 439.847 110.684 440.194 109.796 440.367H109.806Z" fill="#9747FF"/>
<path d="M126.082 440.296C124.469 440.296 123.204 439.857 122.296 438.99C121.388 438.122 120.939 436.939 120.939 435.449C120.939 434.48 121.133 433.633 121.51 432.918C121.898 432.194 122.439 431.633 123.122 431.225C123.816 430.806 124.633 430.602 125.561 430.602C126.49 430.602 127.245 430.796 127.857 431.194C128.48 431.582 128.949 432.133 129.255 432.847C129.571 433.541 129.735 434.357 129.735 435.286V435.929H123.214V434.551H127.714L127.398 434.806C127.398 434.031 127.235 433.449 126.918 433.061C126.612 432.653 126.163 432.459 125.582 432.459C124.928 432.459 124.428 432.694 124.071 433.173C123.724 433.653 123.561 434.337 123.561 435.235V435.531C123.561 436.439 123.786 437.112 124.224 437.551C124.673 437.99 125.326 438.214 126.173 438.214C126.673 438.214 127.143 438.153 127.592 438.031C128.041 437.898 128.469 437.684 128.877 437.408L129.653 439.245C129.184 439.592 128.653 439.847 128.041 440.031C127.439 440.214 126.796 440.306 126.092 440.306L126.082 440.296Z" fill="#9747FF"/>
<path d="M131.735 440.092V430.776H134.469V434.286H138.143V430.776H140.877V440.092H138.143V436.398H134.469V440.092H131.735Z" fill="#9747FF"/>
<path d="M143.296 440.092V430.776H146.031V434.286H147.224L149.745 430.776H152.704L149.326 435.51L148.775 434.633C149.102 434.674 149.408 434.765 149.673 434.929C149.939 435.092 150.194 435.296 150.428 435.551C150.673 435.806 150.898 436.112 151.092 436.469L153.071 440.092H150.133L148.612 437.357C148.49 437.112 148.357 436.918 148.204 436.786C148.071 436.643 147.918 436.541 147.745 436.49C147.571 436.429 147.367 436.398 147.122 436.398H146.041V440.092H143.296Z" fill="#9747FF"/>
<path d="M157.806 440.296C157 440.296 156.286 440.102 155.673 439.704C155.061 439.316 154.582 438.755 154.245 438.031C153.898 437.306 153.735 436.439 153.735 435.418C153.735 434.398 153.908 433.551 154.245 432.827C154.592 432.102 155.061 431.551 155.673 431.173C156.286 430.786 157 430.582 157.806 430.582C158.551 430.582 159.224 430.765 159.806 431.133C160.408 431.49 160.796 431.969 160.98 432.582H160.775L161 430.765H163.663C163.622 431.173 163.592 431.582 163.551 432C163.531 432.408 163.51 432.806 163.51 433.194V440.082H160.755L160.735 438.337H160.959C160.765 438.929 160.367 439.398 159.786 439.755C159.194 440.112 158.541 440.286 157.806 440.286V440.296ZM158.653 438.204C159.286 438.204 159.806 437.98 160.194 437.52C160.582 437.061 160.786 436.367 160.786 435.429C160.786 434.49 160.592 433.796 160.194 433.357C159.806 432.918 159.286 432.694 158.653 432.694C158.02 432.694 157.5 432.918 157.112 433.357C156.724 433.796 156.52 434.49 156.52 435.429C156.52 436.367 156.714 437.071 157.092 437.52C157.48 437.969 158 438.204 158.653 438.204Z" fill="#9747FF"/>
<mask id="mask0_2701_3982" style="mask-type:alpha" maskUnits="userSpaceOnUse" x="205" y="466" width="479" height="73">
<path d="M205.611 466.735H683.162V487.143C683.162 515.316 660.315 538.163 632.142 538.163H256.632C228.458 538.163 205.611 515.316 205.611 487.143V466.735Z" fill="#DBDBDB"/>
</mask>
<g mask="url(#mask0_2701_3982)">
<path d="M205.611 466.735H683.162V487.143C683.162 515.316 660.315 538.163 632.142 538.163H256.632C228.458 538.163 205.611 515.316 205.611 487.143V466.735Z" fill="#DBDBDB"/>
<path d="M193.367 488.857V475.918H195.694L199.857 486.01H199.316L203.479 475.918H205.786V488.857H203.377V480.071H204.061L200.347 488.857H198.816L195.081 480.071H195.796V488.857H193.367Z" fill="#EEEEEE"/>
<path d="M208.235 488.857V475.918H216.551V478.143H210.765V481.173H216.143V483.408H210.765V486.643H216.551V488.857H208.235Z" fill="#EEEEEE"/>
<path d="M221.163 488.857V478.255H217.357V475.929H227.612V478.255H223.806V488.857H221.153H221.163Z" fill="#EEEEEE"/>
<path d="M226.173 488.857L231.673 475.918H233.867L239.439 488.857H236.755L235.316 485.265L236.347 486.051H229.235L230.286 485.265L228.847 488.857H226.173ZM232.755 478.929L230.561 484.541L230.102 483.847H235.449L235.061 484.541L232.816 478.929H232.745H232.755Z" fill="#EEEEEE"/>
<path d="M240.745 489.184L239.439 487.133C239.918 486.837 240.326 486.5 240.673 486.122C241.03 485.735 241.326 485.255 241.551 484.714C241.775 484.163 241.949 483.5 242.061 482.714C242.173 481.929 242.235 481 242.235 479.908V475.929H251.235V488.867H248.602V478.245H244.663V480.612C244.663 481.786 244.571 482.837 244.388 483.765C244.214 484.684 243.959 485.49 243.622 486.184C243.296 486.878 242.888 487.48 242.398 487.98C241.908 488.469 241.357 488.878 240.735 489.194L240.745 489.184Z" fill="#EEEEEE"/>
<path d="M269.296 488.857V475.918H271.622L275.786 486.01H275.245L279.408 475.918H281.714V488.857H279.306V480.071H279.99L276.275 488.857H274.745L271.01 480.071H271.724V488.857H269.296Z" fill="#EEEEEE"/>
<path d="M284.163 488.857V475.918H292.479V478.143H286.694V481.173H292.071V483.408H286.694V486.643H292.479V488.857H284.163Z" fill="#EEEEEE"/>
<path d="M297.092 488.857V478.255H293.286V475.929H303.541V478.255H299.735V488.857H297.081H297.092Z" fill="#EEEEEE"/>
<path d="M302.102 488.857L307.602 475.918H309.796L315.367 488.857H312.684L311.245 485.265L312.286 486.051H305.173L306.224 485.265L304.786 488.857H302.102ZM308.684 478.929L306.49 484.541L306.03 483.847H311.377L310.99 484.541L308.745 478.929H308.673H308.684Z" fill="#EEEEEE"/>
<path d="M316.673 489.184L315.367 487.133C315.847 486.837 316.255 486.5 316.602 486.122C316.959 485.735 317.255 485.255 317.479 484.714C317.704 484.163 317.877 483.5 317.99 482.714C318.102 481.929 318.163 481 318.163 479.908V475.929H327.163V488.867H324.53V478.245H320.592V480.612C320.592 481.786 320.5 482.837 320.316 483.765C320.143 484.684 319.888 485.49 319.551 486.184C319.224 486.878 318.816 487.48 318.326 487.98C317.837 488.469 317.286 488.878 316.663 489.194L316.673 489.184Z" fill="#EEEEEE"/>
<path d="M344.786 488.857V475.918H347.112L351.275 486.01H350.735L354.898 475.918H357.204V488.857H354.796V480.071H355.479L351.765 488.857H350.235L346.5 480.071H347.214V488.857H344.786Z" fill="#EEEEEE"/>
<path d="M359.653 488.857V475.918H367.969V478.143H362.184V481.173H367.561V483.408H362.184V486.643H367.969V488.857H359.653Z" fill="#EEEEEE"/>
<path d="M372.581 488.857V478.255H368.775V475.929H379.03V478.255H375.224V488.857H372.581Z" fill="#EEEEEE"/>
<path d="M377.581 488.857L383.082 475.918H385.265L390.837 488.857H388.153L386.714 485.265L387.745 486.051H380.633L381.684 485.265L380.245 488.857H377.581ZM384.163 478.929L381.969 484.541L381.51 483.847H386.857L386.469 484.541L384.224 478.929H384.153H384.163Z" fill="#EEEEEE"/>
<path d="M392.163 489.184L390.857 487.133C391.337 486.837 391.745 486.5 392.092 486.122C392.449 485.735 392.745 485.255 392.969 484.714C393.194 484.163 393.367 483.5 393.479 482.714C393.592 481.929 393.653 481 393.653 479.908V475.929H402.653V488.867H400.02V478.245H396.081V480.612C396.081 481.786 395.99 482.837 395.806 483.765C395.633 484.684 395.377 485.49 395.041 486.184C394.714 486.878 394.306 487.48 393.816 487.98C393.326 488.469 392.775 488.878 392.153 489.194L392.163 489.184Z" fill="#EEEEEE"/>
<path d="M420.265 488.857V475.918H422.592L426.745 486.01H426.204L430.357 475.918H432.663V488.857H430.255V480.071H430.928L427.214 488.857H425.684L421.949 480.071H422.663V488.857H420.255H420.265Z" fill="#EEEEEE"/>
<path d="M435.133 488.857V475.918H443.449V478.143H437.663V481.173H443.041V483.408H437.663V486.643H443.449V488.857H435.133Z" fill="#EEEEEE"/>
<path d="M448.061 488.857V478.255H444.255V475.929H454.51V478.255H450.704V488.857H448.061Z" fill="#EEEEEE"/>
<path d="M453.071 488.857L458.571 475.918H460.765L466.337 488.857H463.653L462.214 485.265L463.245 486.051H456.133L457.184 485.265L455.745 488.857H453.071ZM459.653 478.929L457.459 484.541L457 483.847H462.347L461.959 484.541L459.714 478.929H459.643H459.653Z" fill="#EEEEEE"/>
<path d="M467.643 489.184L466.337 487.133C466.816 486.837 467.224 486.5 467.571 486.122C467.928 485.735 468.224 485.255 468.449 484.714C468.673 484.163 468.847 483.5 468.959 482.714C469.071 481.929 469.133 481 469.133 479.908V475.929H478.133V488.867H475.5V478.245H471.561V480.612C471.561 481.786 471.469 482.837 471.286 483.765C471.112 484.684 470.857 485.49 470.52 486.184C470.194 486.878 469.786 487.48 469.296 487.98C468.806 488.469 468.255 488.878 467.633 489.194L467.643 489.184Z" fill="#EEEEEE"/>
<path d="M495.755 488.857V475.918H498.082L502.245 486.01H501.704L505.867 475.918H508.173V488.857H505.765V480.071H506.449L502.735 488.857H501.204L497.469 480.071H498.184V488.857H495.755Z" fill="#EEEEEE"/>
<path d="M510.622 488.857V475.918H518.939V478.143H513.153V481.173H518.53V483.408H513.153V486.643H518.939V488.857H510.622Z" fill="#EEEEEE"/>
<path d="M523.551 488.857V478.255H519.745V475.929H530V478.255H526.194V488.857H523.551Z" fill="#EEEEEE"/>
<path d="M528.551 488.857L534.051 475.918H536.245L541.816 488.857H539.133L537.694 485.265L538.724 486.051H531.612L532.663 485.265L531.224 488.857H528.551ZM535.133 478.929L532.939 484.541L532.479 483.847H537.826L537.439 484.541L535.194 478.929H535.122H535.133Z" fill="#EEEEEE"/>
<path d="M543.133 489.184L541.826 487.133C542.306 486.837 542.714 486.5 543.061 486.122C543.418 485.735 543.714 485.255 543.939 484.714C544.163 484.163 544.337 483.5 544.449 482.714C544.561 481.929 544.622 481 544.622 479.908V475.929H553.622V488.867H550.99V478.245H547.051V480.612C547.051 481.786 546.959 482.837 546.775 483.765C546.602 484.684 546.347 485.49 546.01 486.184C545.684 486.878 545.275 487.48 544.786 487.98C544.296 488.469 543.745 488.878 543.122 489.194L543.133 489.184Z" fill="#EEEEEE"/>
<path d="M571.245 488.857V475.918H573.571L577.735 486.01H577.194L581.357 475.918H583.663V488.857H581.255V480.071H581.928L578.214 488.857H576.684L572.949 480.071H573.663V488.857H571.245Z" fill="#EEEEEE"/>
<path d="M586.112 488.857V475.918H594.428V478.143H588.643V481.173H594.02V483.408H588.643V486.643H594.428V488.857H586.112Z" fill="#EEEEEE"/>
<path d="M599.03 488.857V478.255H595.224V475.929H605.479V478.255H601.673V488.857H599.02H599.03Z" fill="#EEEEEE"/>
<path d="M604.041 488.857L609.541 475.918H611.735L617.306 488.857H614.622L613.184 485.265L614.224 486.051H607.112L608.163 485.265L606.724 488.857H604.041ZM610.622 478.929L608.428 484.541L607.969 483.847H613.316L612.928 484.541L610.684 478.929H610.612H610.622Z" fill="#EEEEEE"/>
<path d="M618.612 489.184L617.306 487.133C617.786 486.837 618.194 486.5 618.551 486.122C618.908 485.735 619.204 485.255 619.428 484.714C619.653 484.163 619.826 483.5 619.939 482.714C620.051 481.929 620.112 481 620.112 479.908V475.929H629.112V488.867H626.479V478.245H622.541V480.612C622.541 481.786 622.449 482.837 622.265 483.765C622.092 484.684 621.837 485.49 621.5 486.184C621.173 486.878 620.765 487.48 620.275 487.98C619.786 488.469 619.235 488.878 618.612 489.194V489.184Z" fill="#EEEEEE"/>
<path d="M646.724 488.857V475.918H649.051L653.214 486.01H652.673L656.837 475.918H659.143V488.857H656.735V480.071H657.418L653.704 488.857H652.173L648.439 480.071H649.153V488.857H646.724Z" fill="#EEEEEE"/>
<path d="M661.592 488.857V475.918H669.908V478.143H664.122V481.173H669.5V483.408H664.122V486.643H669.908V488.857H661.592Z" fill="#EEEEEE"/>
<path d="M674.52 488.857V478.255H670.714V475.929H680.969V478.255H677.163V488.857H674.52Z" fill="#EEEEEE"/>
<path d="M679.531 488.857L685.031 475.918H687.224L692.796 488.857H690.112L688.673 485.265L689.704 486.051H682.592L683.643 485.265L682.204 488.857H679.531ZM686.112 478.929L683.918 484.541L683.459 483.847H688.806L688.418 484.541L686.173 478.929H686.102H686.112Z" fill="#EEEEEE"/>
<path d="M694.102 489.184L692.796 487.133C693.275 486.837 693.684 486.5 694.031 486.122C694.388 485.735 694.684 485.255 694.908 484.714C695.133 484.163 695.306 483.5 695.418 482.714C695.531 481.929 695.592 481 695.592 479.908V475.929H704.592V488.867H701.959V478.245H698.02V480.612C698.02 481.786 697.928 482.837 697.745 483.765C697.571 484.684 697.316 485.49 696.979 486.184C696.653 486.878 696.245 487.48 695.755 487.98C695.265 488.469 694.714 488.878 694.092 489.194L694.102 489.184Z" fill="#EEEEEE"/>
<path d="M213.775 509.265V496.326H216.102L220.265 506.418H219.724L223.888 496.326H226.194V509.265H223.786V500.48H224.469L220.755 509.265H219.224L215.49 500.48H216.204V509.265H213.775Z" fill="#EEEEEE"/>
<path d="M228.643 509.265V496.326H236.959V498.551H231.173V501.582H236.551V503.816H231.173V507.051H236.959V509.265H228.643Z" fill="#EEEEEE"/>
<path d="M241.571 509.265V498.663H237.765V496.337H248.02V498.663H244.214V509.265H241.561H241.571Z" fill="#EEEEEE"/>
<path d="M246.581 509.265L252.081 496.326H254.275L259.847 509.265H257.163L255.724 505.673L256.755 506.459H249.643L250.694 505.673L249.255 509.265H246.581ZM253.163 499.337L250.969 504.949L250.51 504.255H255.857L255.469 504.949L253.224 499.337H253.153H253.163Z" fill="#EEEEEE"/>
<path d="M261.153 509.592L259.847 507.541C260.326 507.245 260.735 506.908 261.081 506.531C261.439 506.143 261.735 505.663 261.959 505.122C262.184 504.571 262.357 503.908 262.469 503.122C262.581 502.337 262.643 501.408 262.643 500.316V496.337H271.643V509.275H269.01V498.653H265.071V501.02C265.071 502.194 264.979 503.245 264.796 504.173C264.622 505.092 264.367 505.898 264.03 506.592C263.704 507.286 263.296 507.888 262.806 508.388C262.316 508.878 261.765 509.286 261.143 509.602L261.153 509.592Z" fill="#EEEEEE"/>
<path d="M289.704 509.265V496.326H292.03L296.194 506.418H295.653L299.816 496.326H302.122V509.265H299.714V500.48H300.398L296.684 509.265H295.153L291.418 500.48H292.133V509.265H289.704Z" fill="#EEEEEE"/>
<path d="M304.571 509.265V496.326H312.888V498.551H307.102V501.582H312.479V503.816H307.102V507.051H312.888V509.265H304.571Z" fill="#EEEEEE"/>
<path d="M317.5 509.265V498.663H313.694V496.337H323.949V498.663H320.143V509.265H317.49H317.5Z" fill="#EEEEEE"/>
<path d="M322.51 509.265L328.01 496.326H330.204L335.775 509.265H333.092L331.653 505.673L332.694 506.459H325.581L326.633 505.673L325.194 509.265H322.51ZM329.092 499.337L326.898 504.949L326.439 504.255H331.786L331.398 504.949L329.153 499.337H329.081H329.092Z" fill="#EEEEEE"/>
<path d="M337.081 509.592L335.775 507.541C336.255 507.245 336.663 506.908 337.01 506.531C337.367 506.143 337.663 505.663 337.888 505.122C338.112 504.571 338.286 503.908 338.398 503.122C338.51 502.337 338.571 501.408 338.571 500.316V496.337H347.571V509.275H344.939V498.653H341V501.02C341 502.194 340.908 503.245 340.724 504.173C340.551 505.092 340.296 505.898 339.959 506.592C339.633 507.286 339.224 507.888 338.735 508.388C338.245 508.878 337.694 509.286 337.071 509.602L337.081 509.592Z" fill="#EEEEEE"/>
<path d="M365.194 509.265V496.326H367.52L371.684 506.418H371.143L375.306 496.326H377.612V509.265H375.204V500.48H375.888L372.173 509.265H370.643L366.908 500.48H367.622V509.265H365.194Z" fill="#EEEEEE"/>
<path d="M380.061 509.265V496.326H388.377V498.551H382.592V501.582H387.969V503.816H382.592V507.051H388.377V509.265H380.061Z" fill="#EEEEEE"/>
<path d="M392.99 509.265V498.663H389.184V496.337H399.439V498.663H395.633V509.265H392.99Z" fill="#EEEEEE"/>
<path d="M397.99 509.265L403.49 496.326H405.673L411.245 509.265H408.561L407.122 505.673L408.153 506.459H401.041L402.092 505.673L400.653 509.265H397.99ZM404.571 499.337L402.377 504.949L401.918 504.255H407.265L406.877 504.949L404.633 499.337H404.561H404.571Z" fill="#EEEEEE"/>
<path d="M412.571 509.592L411.265 507.541C411.745 507.245 412.153 506.908 412.5 506.531C412.857 506.143 413.153 505.663 413.377 505.122C413.602 504.571 413.775 503.908 413.888 503.122C414 502.337 414.061 501.408 414.061 500.316V496.337H423.061V509.275H420.428V498.653H416.49V501.02C416.49 502.194 416.398 503.245 416.214 504.173C416.041 505.092 415.786 505.898 415.449 506.592C415.122 507.286 414.714 507.888 414.224 508.388C413.735 508.878 413.184 509.286 412.561 509.602L412.571 509.592Z" fill="#EEEEEE"/>
<path d="M440.673 509.265V496.326H443L447.153 506.418H446.612L450.765 496.326H453.071V509.265H450.663V500.48H451.337L447.622 509.265H446.092L442.357 500.48H443.071V509.265H440.663H440.673Z" fill="#EEEEEE"/>
<path d="M455.541 509.265V496.326H463.857V498.551H458.071V501.582H463.449V503.816H458.071V507.051H463.857V509.265H455.541Z" fill="#EEEEEE"/>
<path d="M468.469 509.265V498.663H464.663V496.337H474.918V498.663H471.112V509.265H468.469Z" fill="#EEEEEE"/>
<path d="M473.479 509.265L478.979 496.326H481.173L486.745 509.265H484.061L482.622 505.673L483.653 506.459H476.541L477.592 505.673L476.153 509.265H473.479ZM480.061 499.337L477.867 504.949L477.408 504.255H482.755L482.367 504.949L480.122 499.337H480.051H480.061Z" fill="#EEEEEE"/>
<path d="M488.051 509.592L486.745 507.541C487.224 507.245 487.633 506.908 487.979 506.531C488.337 506.143 488.633 505.663 488.857 505.122C489.081 504.571 489.255 503.908 489.367 503.122C489.479 502.337 489.541 501.408 489.541 500.316V496.337H498.541V509.275H495.908V498.653H491.969V501.02C491.969 502.194 491.877 503.245 491.694 504.173C491.52 505.092 491.265 505.898 490.928 506.592C490.602 507.286 490.194 507.888 489.704 508.388C489.214 508.878 488.663 509.286 488.041 509.602L488.051 509.592Z" fill="#EEEEEE"/>
<path d="M516.163 509.265V496.326H518.49L522.653 506.418H522.112L526.275 496.326H528.582V509.265H526.173V500.48H526.857L523.143 509.265H521.612L517.877 500.48H518.592V509.265H516.163Z" fill="#EEEEEE"/>
<path d="M531.03 509.265V496.326H539.347V498.551H533.561V501.582H538.939V503.816H533.561V507.051H539.347V509.265H531.03Z" fill="#EEEEEE"/>
<path d="M543.959 509.265V498.663H540.153V496.337H550.408V498.663H546.602V509.265H543.959Z" fill="#EEEEEE"/>
<path d="M548.959 509.265L554.459 496.326H556.653L562.224 509.265H559.541L558.102 505.673L559.133 506.459H552.02L553.071 505.673L551.633 509.265H548.959ZM555.541 499.337L553.347 504.949L552.888 504.255H558.235L557.847 504.949L555.602 499.337H555.53H555.541Z" fill="#EEEEEE"/>
<path d="M563.541 509.592L562.235 507.541C562.714 507.245 563.122 506.908 563.469 506.531C563.826 506.143 564.122 505.663 564.347 505.122C564.571 504.571 564.745 503.908 564.857 503.122C564.969 502.337 565.03 501.408 565.03 500.316V496.337H574.03V509.275H571.398V498.653H567.459V501.02C567.459 502.194 567.367 503.245 567.184 504.173C567.01 505.092 566.755 505.898 566.418 506.592C566.092 507.286 565.684 507.888 565.194 508.388C564.704 508.878 564.153 509.286 563.531 509.602L563.541 509.592Z" fill="#EEEEEE"/>
<path d="M591.653 509.265V496.326H593.979L598.143 506.418H597.602L601.765 496.326H604.071V509.265H601.663V500.48H602.337L598.622 509.265H597.092L593.357 500.48H594.071V509.265H591.653Z" fill="#EEEEEE"/>
<path d="M606.52 509.265V496.326H614.837V498.551H609.051V501.582H614.428V503.816H609.051V507.051H614.837V509.265H606.52Z" fill="#EEEEEE"/>
<path d="M619.439 509.265V498.663H615.633V496.337H625.888V498.663H622.082V509.265H619.428H619.439Z" fill="#EEEEEE"/>
<path d="M624.449 509.265L629.949 496.326H632.143L637.714 509.265H635.031L633.592 505.673L634.633 506.459H627.52L628.571 505.673L627.133 509.265H624.449ZM631.03 499.337L628.837 504.949L628.377 504.255H633.724L633.337 504.949L631.092 499.337H631.02H631.03Z" fill="#EEEEEE"/>
<path d="M639.02 509.592L637.714 507.541C638.194 507.245 638.602 506.908 638.959 506.531C639.316 506.143 639.612 505.663 639.837 505.122C640.061 504.571 640.235 503.908 640.347 503.122C640.459 502.337 640.52 501.408 640.52 500.316V496.337H649.52V509.275H646.888V498.653H642.949V501.02C642.949 502.194 642.857 503.245 642.673 504.173C642.5 505.092 642.245 505.898 641.908 506.592C641.582 507.286 641.173 507.888 640.684 508.388C640.194 508.878 639.643 509.286 639.02 509.602V509.592Z" fill="#EEEEEE"/>
<path d="M667.133 509.265V496.326H669.459L673.622 506.418H673.082L677.245 496.326H679.551V509.265H677.143V500.48H677.826L674.112 509.265H672.582L668.847 500.48H669.561V509.265H667.133Z" fill="#EEEEEE"/>
<path d="M682 509.265V496.326H690.316V498.551H684.531V501.582H689.908V503.816H684.531V507.051H690.316V509.265H682Z" fill="#EEEEEE"/>
<path d="M694.928 509.265V498.663H691.122V496.337H701.377V498.663H697.571V509.265H694.928Z" fill="#EEEEEE"/>
<path d="M699.939 509.265L705.439 496.326H707.633L713.204 509.265H710.52L709.082 505.673L710.112 506.459H703L704.051 505.673L702.612 509.265H699.939ZM706.52 499.337L704.326 504.949L703.867 504.255H709.214L708.826 504.949L706.582 499.337H706.51H706.52Z" fill="#EEEEEE"/>
<path d="M714.51 509.592L713.204 507.541C713.684 507.245 714.092 506.908 714.439 506.531C714.796 506.143 715.092 505.663 715.316 505.122C715.541 504.571 715.714 503.908 715.826 503.122C715.939 502.337 716 501.408 716 500.316V496.337H725V509.275H722.367V498.653H718.428V501.02C718.428 502.194 718.337 503.245 718.153 504.173C717.979 505.092 717.724 505.898 717.388 506.592C717.061 507.286 716.653 507.888 716.163 508.388C715.673 508.878 715.122 509.286 714.5 509.602L714.51 509.592Z" fill="#EEEEEE"/>
<path d="M193.367 529.673V516.735H195.694L199.857 526.827H199.316L203.479 516.735H205.786V529.673H203.377V520.888H204.061L200.347 529.673H198.816L195.081 520.888H195.796V529.673H193.367Z" fill="#EEEEEE"/>
<path d="M208.235 529.673V516.735H216.551V518.959H210.765V521.99H216.143V524.224H210.765V527.449H216.551V529.673H208.235Z" fill="#EEEEEE"/>
<path d="M221.163 529.673V519.071H217.357V516.745H227.612V519.071H223.806V529.673H221.153H221.163Z" fill="#EEEEEE"/>
<path d="M226.173 529.673L231.673 516.735H233.867L239.439 529.673H236.755L235.316 526.082L236.347 526.867H229.235L230.286 526.082L228.847 529.673H226.173ZM232.755 519.745L230.561 525.357L230.102 524.663H235.449L235.061 525.357L232.816 519.745H232.745H232.755Z" fill="#EEEEEE"/>
<path d="M240.745 530L239.439 527.949C239.918 527.653 240.326 527.316 240.673 526.939C241.03 526.551 241.326 526.071 241.551 525.531C241.775 524.98 241.949 524.316 242.061 523.531C242.173 522.745 242.235 521.816 242.235 520.724V516.745H251.235V529.684H248.602V519.061H244.663V521.429C244.663 522.602 244.571 523.653 244.388 524.582C244.214 525.5 243.959 526.306 243.622 527C243.296 527.694 242.888 528.296 242.398 528.796C241.908 529.286 241.357 529.694 240.735 530.01L240.745 530Z" fill="#EEEEEE"/>
<path d="M269.296 529.673V516.735H271.622L275.786 526.827H275.245L279.408 516.735H281.714V529.673H279.306V520.888H279.99L276.275 529.673H274.745L271.01 520.888H271.724V529.673H269.296Z" fill="#EEEEEE"/>
<path d="M284.163 529.673V516.735H292.479V518.959H286.694V521.99H292.071V524.224H286.694V527.449H292.479V529.673H284.163Z" fill="#EEEEEE"/>
<path d="M297.092 529.673V519.071H293.286V516.745H303.541V519.071H299.735V529.673H297.081H297.092Z" fill="#EEEEEE"/>
<path d="M302.102 529.673L307.602 516.735H309.796L315.367 529.673H312.684L311.245 526.082L312.286 526.867H305.173L306.224 526.082L304.786 529.673H302.102ZM308.684 519.745L306.49 525.357L306.03 524.663H311.377L310.99 525.357L308.745 519.745H308.673H308.684Z" fill="#EEEEEE"/>
<path d="M316.673 530L315.367 527.949C315.847 527.653 316.255 527.316 316.602 526.939C316.959 526.551 317.255 526.071 317.479 525.531C317.704 524.98 317.877 524.316 317.99 523.531C318.102 522.745 318.163 521.816 318.163 520.724V516.745H327.163V529.684H324.53V519.061H320.592V521.429C320.592 522.602 320.5 523.653 320.316 524.582C320.143 525.5 319.888 526.306 319.551 527C319.224 527.694 318.816 528.296 318.326 528.796C317.837 529.286 317.286 529.694 316.663 530.01L316.673 530Z" fill="#EEEEEE"/>
<path d="M344.786 529.673V516.735H347.112L351.275 526.827H350.735L354.898 516.735H357.204V529.673H354.796V520.888H355.479L351.765 529.673H350.235L346.5 520.888H347.214V529.673H344.786Z" fill="#EEEEEE"/>
<path d="M359.653 529.673V516.735H367.969V518.959H362.184V521.99H367.561V524.224H362.184V527.449H367.969V529.673H359.653Z" fill="#EEEEEE"/>
<path d="M372.581 529.673V519.071H368.775V516.745H379.03V519.071H375.224V529.673H372.581Z" fill="#EEEEEE"/>
<path d="M377.581 529.673L383.082 516.735H385.265L390.837 529.673H388.153L386.714 526.082L387.745 526.867H380.633L381.684 526.082L380.245 529.673H377.581ZM384.163 519.745L381.969 525.357L381.51 524.663H386.857L386.469 525.357L384.224 519.745H384.153H384.163Z" fill="#EEEEEE"/>
<path d="M392.163 530L390.857 527.949C391.337 527.653 391.745 527.316 392.092 526.939C392.449 526.551 392.745 526.071 392.969 525.531C393.194 524.98 393.367 524.316 393.479 523.531C393.592 522.745 393.653 521.816 393.653 520.724V516.745H402.653V529.684H400.02V519.061H396.081V521.429C396.081 522.602 395.99 523.653 395.806 524.582C395.633 525.5 395.377 526.306 395.041 527C394.714 527.694 394.306 528.296 393.816 528.796C393.326 529.286 392.775 529.694 392.153 530.01L392.163 530Z" fill="#EEEEEE"/>
<path d="M420.265 529.673V516.735H422.592L426.745 526.827H426.204L430.357 516.735H432.663V529.673H430.255V520.888H430.928L427.214 529.673H425.684L421.949 520.888H422.663V529.673H420.255H420.265Z" fill="#EEEEEE"/>
<path d="M435.133 529.673V516.735H443.449V518.959H437.663V521.99H443.041V524.224H437.663V527.449H443.449V529.673H435.133Z" fill="#EEEEEE"/>
<path d="M448.061 529.673V519.071H444.255V516.745H454.51V519.071H450.704V529.673H448.061Z" fill="#EEEEEE"/>
<path d="M453.071 529.673L458.571 516.735H460.765L466.337 529.673H463.653L462.214 526.082L463.245 526.867H456.133L457.184 526.082L455.745 529.673H453.071ZM459.653 519.745L457.459 525.357L457 524.663H462.347L461.959 525.357L459.714 519.745H459.643H459.653Z" fill="#EEEEEE"/>
<path d="M467.643 530L466.337 527.949C466.816 527.653 467.224 527.316 467.571 526.939C467.928 526.551 468.224 526.071 468.449 525.531C468.673 524.98 468.847 524.316 468.959 523.531C469.071 522.745 469.133 521.816 469.133 520.724V516.745H478.133V529.684H475.5V519.061H471.561V521.429C471.561 522.602 471.469 523.653 471.286 524.582C471.112 525.5 470.857 526.306 470.52 527C470.194 527.694 469.786 528.296 469.296 528.796C468.806 529.286 468.255 529.694 467.633 530.01L467.643 530Z" fill="#EEEEEE"/>
<path d="M495.755 529.673V516.735H498.082L502.245 526.827H501.704L505.867 516.735H508.173V529.673H505.765V520.888H506.449L502.735 529.673H501.204L497.469 520.888H498.184V529.673H495.755Z" fill="#EEEEEE"/>
<path d="M510.622 529.673V516.735H518.939V518.959H513.153V521.99H518.53V524.224H513.153V527.449H518.939V529.673H510.622Z" fill="#EEEEEE"/>
<path d="M523.551 529.673V519.071H519.745V516.745H530V519.071H526.194V529.673H523.551Z" fill="#EEEEEE"/>
<path d="M528.551 529.673L534.051 516.735H536.245L541.816 529.673H539.133L537.694 526.082L538.724 526.867H531.612L532.663 526.082L531.224 529.673H528.551ZM535.133 519.745L532.939 525.357L532.479 524.663H537.826L537.439 525.357L535.194 519.745H535.122H535.133Z" fill="#EEEEEE"/>
<path d="M543.133 530L541.826 527.949C542.306 527.653 542.714 527.316 543.061 526.939C543.418 526.551 543.714 526.071 543.939 525.531C544.163 524.98 544.337 524.316 544.449 523.531C544.561 522.745 544.622 521.816 544.622 520.724V516.745H553.622V529.684H550.99V519.061H547.051V521.429C547.051 522.602 546.959 523.653 546.775 524.582C546.602 525.5 546.347 526.306 546.01 527C545.684 527.694 545.275 528.296 544.786 528.796C544.296 529.286 543.745 529.694 543.122 530.01L543.133 530Z" fill="#EEEEEE"/>
<path d="M571.245 529.673V516.735H573.571L577.735 526.827H577.194L581.357 516.735H583.663V529.673H581.255V520.888H581.928L578.214 529.673H576.684L572.949 520.888H573.663V529.673H571.245Z" fill="#EEEEEE"/>
<path d="M586.112 529.673V516.735H594.428V518.959H588.643V521.99H594.02V524.224H588.643V527.449H594.428V529.673H586.112Z" fill="#EEEEEE"/>
<path d="M599.03 529.673V519.071H595.224V516.745H605.479V519.071H601.673V529.673H599.02H599.03Z" fill="#EEEEEE"/>
<path d="M604.041 529.673L609.541 516.735H611.735L617.306 529.673H614.622L613.184 526.082L614.224 526.867H607.112L608.163 526.082L606.724 529.673H604.041ZM610.622 519.745L608.428 525.357L607.969 524.663H613.316L612.928 525.357L610.684 519.745H610.612H610.622Z" fill="#EEEEEE"/>
<path d="M618.612 530L617.306 527.949C617.786 527.653 618.194 527.316 618.551 526.939C618.908 526.551 619.204 526.071 619.428 525.531C619.653 524.98 619.826 524.316 619.939 523.531C620.051 522.745 620.112 521.816 620.112 520.724V516.745H629.112V529.684H626.479V519.061H622.541V521.429C622.541 522.602 622.449 523.653 622.265 524.582C622.092 525.5 621.837 526.306 621.5 527C621.173 527.694 620.765 528.296 620.275 528.796C619.786 529.286 619.235 529.694 618.612 530.01V530Z" fill="#EEEEEE"/>
<path d="M646.724 529.673V516.735H649.051L653.214 526.827H652.673L656.837 516.735H659.143V529.673H656.735V520.888H657.418L653.704 529.673H652.173L648.439 520.888H649.153V529.673H646.724Z" fill="#EEEEEE"/>
<path d="M661.592 529.673V516.735H669.908V518.959H664.122V521.99H669.5V524.224H664.122V527.449H669.908V529.673H661.592Z" fill="#EEEEEE"/>
<path d="M674.52 529.673V519.071H670.714V516.745H680.969V519.071H677.163V529.673H674.52Z" fill="#EEEEEE"/>
<path d="M679.531 529.673L685.031 516.735H687.224L692.796 529.673H690.112L688.673 526.082L689.704 526.867H682.592L683.643 526.082L682.204 529.673H679.531ZM686.112 519.745L683.918 525.357L683.459 524.663H688.806L688.418 525.357L686.173 519.745H686.102H686.112Z" fill="#EEEEEE"/>
<path d="M694.102 530L692.796 527.949C693.275 527.653 693.684 527.316 694.031 526.939C694.388 526.551 694.684 526.071 694.908 525.531C695.133 524.98 695.306 524.316 695.418 523.531C695.531 522.745 695.592 521.816 695.592 520.724V516.745H704.592V529.684H701.959V519.061H698.02V521.429C698.02 522.602 697.928 523.653 697.745 524.582C697.571 525.5 697.316 526.306 696.979 527C696.653 527.694 696.245 528.296 695.755 528.796C695.265 529.286 694.714 529.694 694.092 530.01L694.102 530Z" fill="#EEEEEE"/>
</g>
<path d="M217.856 460.612C217.856 463.99 215.111 466.735 211.734 466.735C208.356 466.735 205.611 463.99 205.611 460.612C205.611 458.796 206.397 457.173 207.652 456.051C208.734 455.082 210.162 454.49 211.734 454.49C215.111 454.49 217.856 457.235 217.856 460.612Z" fill="#9747FF"/>
<path d="M230.101 460.612C230.101 463.99 227.356 466.735 223.979 466.735C220.601 466.735 217.856 463.99 217.856 460.612C217.856 457.235 220.601 454.49 223.979 454.49C227.356 454.49 230.101 457.235 230.101 460.612Z" fill="#9747FF"/>
<path d="M242.346 460.612C242.346 463.99 239.601 466.735 236.224 466.735C232.846 466.735 230.101 463.99 230.101 460.612C230.101 457.235 232.846 454.49 236.224 454.49C239.601 454.49 242.346 457.235 242.346 460.612Z" fill="#9747FF"/>
<path d="M254.591 460.612C254.591 463.99 251.846 466.735 248.468 466.735C245.091 466.735 242.346 463.99 242.346 460.612C242.346 457.235 245.091 454.49 248.468 454.49C251.846 454.49 254.591 457.235 254.591 460.612Z" fill="#9747FF"/>
<path d="M266.836 460.612C266.836 463.99 264.091 466.735 260.713 466.735C257.336 466.735 254.591 463.99 254.591 460.612C254.591 457.235 257.336 454.49 260.713 454.49C264.091 454.49 266.836 457.235 266.836 460.612Z" fill="#9747FF"/>
<path d="M279.081 460.612C279.081 463.99 276.336 466.735 272.958 466.735C269.581 466.735 266.836 463.99 266.836 460.612C266.836 457.235 269.581 454.49 272.958 454.49C276.336 454.49 279.081 457.235 279.081 460.612Z" fill="#9747FF"/>
<path d="M291.326 460.612C291.326 463.99 288.581 466.735 285.203 466.735C281.826 466.735 279.081 463.99 279.081 460.612C279.081 457.235 281.826 454.49 285.203 454.49C288.581 454.49 291.326 457.235 291.326 460.612Z" fill="#9747FF"/>
<path d="M303.571 460.612C303.571 463.99 300.826 466.735 297.448 466.735C294.071 466.735 291.326 463.99 291.326 460.612C291.326 457.235 294.071 454.49 297.448 454.49C300.826 454.49 303.571 457.235 303.571 460.612Z" fill="#9747FF"/>
<path d="M315.815 460.612C315.815 463.99 313.071 466.735 309.693 466.735C306.315 466.735 303.571 463.99 303.571 460.612C303.571 457.235 306.315 454.49 309.693 454.49C313.071 454.49 315.815 457.235 315.815 460.612Z" fill="#9747FF"/>
<path d="M328.06 460.612C328.06 463.99 325.315 466.735 321.938 466.735C318.56 466.735 315.815 463.99 315.815 460.612C315.815 457.235 318.56 454.49 321.938 454.49C325.315 454.49 328.06 457.235 328.06 460.612Z" fill="#9747FF"/>
<path d="M340.305 460.612C340.305 463.99 337.56 466.735 334.183 466.735C330.805 466.735 328.06 463.99 328.06 460.612C328.06 457.235 330.805 454.49 334.183 454.49C337.56 454.49 340.305 457.235 340.305 460.612Z" fill="#9747FF"/>
<path d="M352.55 460.612C352.55 463.99 349.805 466.735 346.428 466.735C343.05 466.735 340.305 463.99 340.305 460.612C340.305 457.235 343.05 454.49 346.428 454.49C349.805 454.49 352.55 457.235 352.55 460.612Z" fill="#9747FF"/>
<path d="M364.795 460.612C364.795 463.99 362.05 466.735 358.673 466.735C355.295 466.735 352.55 463.99 352.55 460.612C352.55 457.235 355.295 454.49 358.673 454.49C362.05 454.49 364.795 457.235 364.795 460.612Z" fill="#9747FF"/>
<path d="M377.04 460.612C377.04 463.99 374.295 466.735 370.917 466.735C367.54 466.735 364.795 463.99 364.795 460.612C364.795 457.235 367.54 454.49 370.917 454.49C374.295 454.49 377.04 457.235 377.04 460.612Z" fill="#9747FF"/>
<path d="M389.285 460.612C389.285 463.99 386.54 466.735 383.162 466.735C379.785 466.735 377.04 463.99 377.04 460.612C377.04 457.235 379.785 454.49 383.162 454.49C386.54 454.49 389.285 457.235 389.285 460.612Z" fill="#9747FF"/>
<path d="M401.53 460.612C401.53 463.99 398.785 466.735 395.407 466.735C392.03 466.735 389.285 463.99 389.285 460.612C389.285 457.235 392.03 454.49 395.407 454.49C398.785 454.49 401.53 457.235 401.53 460.612Z" fill="#9747FF"/>
<path d="M413.775 460.612C413.775 463.99 411.03 466.735 407.652 466.735C404.275 466.735 401.53 463.99 401.53 460.612C401.53 457.235 404.275 454.49 407.652 454.49C411.03 454.49 413.775 457.235 413.775 460.612Z" fill="#9747FF"/>
<path d="M426.019 460.612C426.019 463.99 423.275 466.735 419.897 466.735C416.519 466.735 413.775 463.99 413.775 460.612C413.775 457.235 416.519 454.49 419.897 454.49C423.275 454.49 426.019 457.235 426.019 460.612Z" fill="#9747FF"/>
<path d="M438.264 460.612C438.264 463.99 435.519 466.735 432.142 466.735C428.764 466.735 426.019 463.99 426.019 460.612C426.019 457.235 428.764 454.49 432.142 454.49C435.519 454.49 438.264 457.235 438.264 460.612Z" fill="#9747FF"/>
<path d="M450.509 460.612C450.509 463.99 447.764 466.735 444.387 466.735C441.009 466.735 438.264 463.99 438.264 460.612C438.264 457.235 441.009 454.49 444.387 454.49C447.764 454.49 450.509 457.235 450.509 460.612Z" fill="#9747FF"/>
<path d="M462.754 460.612C462.754 463.99 460.009 466.735 456.632 466.735C453.254 466.735 450.509 463.99 450.509 460.612C450.509 457.235 453.254 454.49 456.632 454.49C460.009 454.49 462.754 457.235 462.754 460.612Z" fill="#9747FF"/>
<path d="M474.999 460.612C474.999 463.99 472.254 466.735 468.877 466.735C465.499 466.735 462.754 463.99 462.754 460.612C462.754 457.235 465.499 454.49 468.877 454.49C472.254 454.49 474.999 457.235 474.999 460.612Z" fill="#9747FF"/>
<path d="M487.244 460.612C487.244 463.99 484.499 466.735 481.122 466.735C477.744 466.735 474.999 463.99 474.999 460.612C474.999 457.235 477.744 454.49 481.122 454.49C484.499 454.49 487.244 457.235 487.244 460.612Z" fill="#9747FF"/>
<path d="M499.489 460.612C499.489 463.99 496.744 466.735 493.366 466.735C489.989 466.735 487.244 463.99 487.244 460.612C487.244 457.235 489.989 454.49 493.366 454.49C496.744 454.49 499.489 457.235 499.489 460.612Z" fill="#9747FF"/>
<path d="M511.734 460.612C511.734 463.99 508.989 466.735 505.611 466.735C502.234 466.735 499.489 463.99 499.489 460.612C499.489 457.235 502.234 454.49 505.611 454.49C508.989 454.49 511.734 457.235 511.734 460.612Z" fill="#9747FF"/>
<path d="M523.979 460.612C523.979 463.99 521.234 466.735 517.856 466.735C514.479 466.735 511.734 463.99 511.734 460.612C511.734 457.235 514.479 454.49 517.856 454.49C521.234 454.49 523.979 457.235 523.979 460.612Z" fill="#9747FF"/>
<path d="M536.224 460.612C536.224 463.99 533.479 466.735 530.101 466.735C526.724 466.735 523.979 463.99 523.979 460.612C523.979 457.235 526.724 454.49 530.101 454.49C533.479 454.49 536.224 457.235 536.224 460.612Z" fill="#9747FF"/>
<path d="M548.468 460.612C548.468 463.99 545.724 466.735 542.346 466.735C538.968 466.735 536.224 463.99 536.224 460.612C536.224 457.235 538.968 454.49 542.346 454.49C545.724 454.49 548.468 457.235 548.468 460.612Z" fill="#9747FF"/>
<path d="M560.713 460.612C560.713 463.99 557.968 466.735 554.591 466.735C551.213 466.735 548.468 463.99 548.468 460.612C548.468 457.235 551.213 454.49 554.591 454.49C557.968 454.49 560.713 457.235 560.713 460.612Z" fill="#9747FF"/>
<path d="M572.958 460.612C572.958 463.99 570.213 466.735 566.836 466.735C563.458 466.735 560.713 463.99 560.713 460.612C560.713 457.235 563.458 454.49 566.836 454.49C570.213 454.49 572.958 457.235 572.958 460.612Z" fill="#9747FF"/>
<path d="M585.203 460.612C585.203 463.99 582.458 466.735 579.081 466.735C575.703 466.735 572.958 463.99 572.958 460.612C572.958 457.235 575.703 454.49 579.081 454.49C582.458 454.49 585.203 457.235 585.203 460.612Z" fill="#9747FF"/>
<path d="M597.448 460.612C597.448 463.99 594.703 466.735 591.326 466.735C587.948 466.735 585.203 463.99 585.203 460.612C585.203 457.235 587.948 454.49 591.326 454.49C594.703 454.49 597.448 457.235 597.448 460.612Z" fill="#9747FF"/>
<path d="M609.693 460.612C609.693 463.99 606.948 466.735 603.571 466.735C600.193 466.735 597.448 463.99 597.448 460.612C597.448 457.235 600.193 454.49 603.571 454.49C606.948 454.49 609.693 457.235 609.693 460.612Z" fill="#9747FF"/>
<path d="M621.938 460.612C621.938 463.99 619.193 466.735 615.815 466.735C612.438 466.735 609.693 463.99 609.693 460.612C609.693 457.235 612.438 454.49 615.815 454.49C619.193 454.49 621.938 457.235 621.938 460.612Z" fill="#9747FF"/>
<path d="M634.183 460.612C634.183 463.99 631.438 466.735 628.06 466.735C624.683 466.735 621.938 463.99 621.938 460.612C621.938 457.235 624.683 454.49 628.06 454.49C631.438 454.49 634.183 457.235 634.183 460.612Z" fill="#9747FF"/>
<path d="M646.428 460.612C646.428 463.99 643.683 466.735 640.305 466.735C636.928 466.735 634.183 463.99 634.183 460.612C634.183 457.235 636.928 454.49 640.305 454.49C643.683 454.49 646.428 457.235 646.428 460.612Z" fill="#9747FF"/>
<path d="M658.673 460.612C658.673 463.99 655.928 466.735 652.55 466.735C649.173 466.735 646.428 463.99 646.428 460.612C646.428 457.235 649.173 454.49 652.55 454.49C655.928 454.49 658.673 457.235 658.673 460.612Z" fill="#9747FF"/>
<path d="M670.917 460.612C670.917 463.99 668.173 466.735 664.795 466.735C661.417 466.735 658.673 463.99 658.673 460.612C658.673 457.235 661.417 454.49 664.795 454.49C668.173 454.49 670.917 457.235 670.917 460.612Z" fill="#9747FF"/>
<path d="M683.162 460.612C683.162 463.99 680.417 466.735 677.04 466.735C673.662 466.735 670.917 463.99 670.917 460.612C670.917 457.235 673.662 454.49 677.04 454.49C680.417 454.49 683.162 457.235 683.162 460.612Z" fill="#9747FF"/>
<path d="M242.346 436.122C242.346 446.265 234.122 454.49 223.979 454.49C217.611 454.49 211.999 451.245 208.703 446.327C206.754 443.408 205.611 439.898 205.611 436.122C205.611 425.98 213.836 417.755 223.979 417.755C234.122 417.755 242.346 425.98 242.346 436.122Z" fill="#9747FF"/>
<path d="M279.081 436.122C279.081 446.265 270.856 454.49 260.713 454.49C250.571 454.49 242.346 446.265 242.346 436.122C242.346 425.98 250.571 417.755 260.713 417.755C270.856 417.755 279.081 425.98 279.081 436.122Z" fill="#9747FF"/>
<path d="M315.815 436.122C315.815 446.265 307.591 454.49 297.448 454.49C287.305 454.49 279.081 446.265 279.081 436.122C279.081 425.98 287.305 417.755 297.448 417.755C307.591 417.755 315.815 425.98 315.815 436.122Z" fill="#9747FF"/>
<path d="M352.55 436.122C352.55 446.265 344.326 454.49 334.183 454.49C324.04 454.49 315.815 446.265 315.815 436.122C315.815 425.98 324.04 417.755 334.183 417.755C344.326 417.755 352.55 425.98 352.55 436.122Z" fill="#9747FF"/>
<path d="M389.285 436.122C389.285 446.265 381.06 454.49 370.917 454.49C360.775 454.49 352.55 446.265 352.55 436.122C352.55 425.98 360.775 417.755 370.917 417.755C381.06 417.755 389.285 425.98 389.285 436.122Z" fill="#9747FF"/>
<path d="M426.019 436.122C426.019 446.265 417.795 454.49 407.652 454.49C397.509 454.49 389.285 446.265 389.285 436.122C389.285 425.98 397.509 417.755 407.652 417.755C417.795 417.755 426.019 425.98 426.019 436.122Z" fill="#9747FF"/>
<path d="M462.754 436.122C462.754 446.265 454.53 454.49 444.387 454.49C434.244 454.49 426.019 446.265 426.019 436.122C426.019 425.98 434.244 417.755 444.387 417.755C454.53 417.755 462.754 425.98 462.754 436.122Z" fill="#9747FF"/>
<path d="M499.489 436.122C499.489 446.265 491.264 454.49 481.122 454.49C470.979 454.49 462.754 446.265 462.754 436.122C462.754 425.98 470.979 417.755 481.122 417.755C491.264 417.755 499.489 425.98 499.489 436.122Z" fill="#9747FF"/>
<path d="M536.224 436.122C536.224 446.265 527.999 454.49 517.856 454.49C507.713 454.49 499.489 446.265 499.489 436.122C499.489 425.98 507.713 417.755 517.856 417.755C527.999 417.755 536.224 425.98 536.224 436.122Z" fill="#9747FF"/>
<path d="M572.958 436.122C572.958 446.265 564.734 454.49 554.591 454.49C544.448 454.49 536.224 446.265 536.224 436.122C536.224 425.98 544.448 417.755 554.591 417.755C564.734 417.755 572.958 425.98 572.958 436.122Z" fill="#9747FF"/>
<path d="M609.693 436.122C609.693 446.265 601.468 454.49 591.326 454.49C581.183 454.49 572.958 446.265 572.958 436.122C572.958 425.98 581.183 417.755 591.326 417.755C601.468 417.755 609.693 425.98 609.693 436.122Z" fill="#9747FF"/>
<path d="M646.428 436.122C646.428 446.265 638.203 454.49 628.06 454.49C617.917 454.49 609.693 446.265 609.693 436.122C609.693 425.98 617.917 417.755 628.06 417.755C638.203 417.755 646.428 425.98 646.428 436.122Z" fill="#9747FF"/>
<path d="M683.162 436.122C683.162 446.265 674.938 454.49 664.795 454.49C654.652 454.49 646.428 446.265 646.428 436.122C646.428 425.98 654.652 417.755 664.795 417.755C674.938 417.755 683.162 425.98 683.162 436.122Z" fill="#9747FF"/>
<path d="M211.734 454.49C215.111 454.49 217.856 457.235 217.856 460.612C217.856 457.235 220.601 454.49 223.979 454.49C217.611 454.49 211.999 451.245 208.703 446.327C210.713 450.816 208.836 454.673 207.652 456.051C208.734 455.082 210.162 454.49 211.734 454.49Z" fill="#9747FF"/>
<path d="M223.979 454.49C227.356 454.49 230.101 457.235 230.101 460.612C230.101 457.235 232.846 454.49 236.224 454.49C239.601 454.49 242.346 457.235 242.346 460.612C242.346 457.235 245.091 454.49 248.468 454.49C251.846 454.49 254.591 457.235 254.591 460.612C254.591 457.235 257.336 454.49 260.713 454.49C250.571 454.49 242.346 446.265 242.346 436.122C242.346 446.265 234.122 454.49 223.979 454.49Z" fill="#9747FF"/>
<path d="M260.713 454.49C264.091 454.49 266.836 457.235 266.836 460.612C266.836 457.235 269.581 454.49 272.958 454.49C276.336 454.49 279.081 457.235 279.081 460.612C279.081 457.235 281.826 454.49 285.203 454.49C288.581 454.49 291.326 457.235 291.326 460.612C291.326 457.235 294.071 454.49 297.448 454.49C287.305 454.49 279.081 446.265 279.081 436.122C279.081 446.265 270.856 454.49 260.713 454.49Z" fill="#9747FF"/>
<path d="M297.448 454.49C300.826 454.49 303.571 457.235 303.571 460.612C303.571 457.235 306.315 454.49 309.693 454.49C313.071 454.49 315.815 457.235 315.815 460.612C315.815 457.235 318.56 454.49 321.938 454.49C325.315 454.49 328.06 457.235 328.06 460.612C328.06 457.235 330.805 454.49 334.183 454.49C324.04 454.49 315.815 446.265 315.815 436.122C315.815 446.265 307.591 454.49 297.448 454.49Z" fill="#9747FF"/>
<path d="M334.183 454.49C337.56 454.49 340.305 457.235 340.305 460.612C340.305 457.235 343.05 454.49 346.428 454.49C349.805 454.49 352.55 457.235 352.55 460.612C352.55 457.235 355.295 454.49 358.673 454.49C362.05 454.49 364.795 457.235 364.795 460.612C364.795 457.235 367.54 454.49 370.917 454.49C360.775 454.49 352.55 446.265 352.55 436.122C352.55 446.265 344.326 454.49 334.183 454.49Z" fill="#9747FF"/>
<path d="M370.917 454.49C374.295 454.49 377.04 457.235 377.04 460.612C377.04 457.235 379.785 454.49 383.162 454.49C386.54 454.49 389.285 457.235 389.285 460.612C389.285 457.235 392.03 454.49 395.407 454.49C398.785 454.49 401.53 457.235 401.53 460.612C401.53 457.235 404.275 454.49 407.652 454.49C397.509 454.49 389.285 446.265 389.285 436.122C389.285 446.265 381.06 454.49 370.917 454.49Z" fill="#9747FF"/>
<path d="M407.652 454.49C411.03 454.49 413.775 457.235 413.775 460.612C413.775 457.235 416.519 454.49 419.897 454.49C423.275 454.49 426.019 457.235 426.019 460.612C426.019 457.235 428.764 454.49 432.142 454.49C435.519 454.49 438.264 457.235 438.264 460.612C438.264 457.235 441.009 454.49 444.387 454.49C434.244 454.49 426.019 446.265 426.019 436.122C426.019 446.265 417.795 454.49 407.652 454.49Z" fill="#9747FF"/>
<path d="M664.795 454.49C668.173 454.49 670.917 457.235 670.917 460.612C670.917 457.235 673.662 454.49 677.04 454.49C678.611 454.49 680.04 455.082 681.122 456.051C679.938 454.684 678.06 450.816 680.07 446.327C676.775 451.245 671.162 454.49 664.795 454.49Z" fill="#9747FF"/>
<path d="M628.06 454.49C631.438 454.49 634.183 457.235 634.183 460.612C634.183 457.235 636.928 454.49 640.305 454.49C643.683 454.49 646.428 457.235 646.428 460.612C646.428 457.235 649.173 454.49 652.55 454.49C655.928 454.49 658.673 457.235 658.673 460.612C658.673 457.235 661.417 454.49 664.795 454.49C654.652 454.49 646.428 446.265 646.428 436.122C646.428 446.265 638.203 454.49 628.06 454.49Z" fill="#9747FF"/>
<path d="M591.326 454.49C594.703 454.49 597.448 457.235 597.448 460.612C597.448 457.235 600.193 454.49 603.571 454.49C606.948 454.49 609.693 457.235 609.693 460.612C609.693 457.235 612.438 454.49 615.815 454.49C619.193 454.49 621.938 457.235 621.938 460.612C621.938 457.235 624.683 454.49 628.06 454.49C617.917 454.49 609.693 446.265 609.693 436.122C609.693 446.265 601.468 454.49 591.326 454.49Z" fill="#9747FF"/>
<path d="M554.591 454.49C557.968 454.49 560.713 457.235 560.713 460.612C560.713 457.235 563.458 454.49 566.836 454.49C570.213 454.49 572.958 457.235 572.958 460.612C572.958 457.235 575.703 454.49 579.081 454.49C582.458 454.49 585.203 457.235 585.203 460.612C585.203 457.235 587.948 454.49 591.326 454.49C581.183 454.49 572.958 446.265 572.958 436.122C572.958 446.265 564.734 454.49 554.591 454.49Z" fill="#9747FF"/>
<path d="M517.856 454.49C521.234 454.49 523.979 457.235 523.979 460.612C523.979 457.235 526.724 454.49 530.101 454.49C533.479 454.49 536.224 457.235 536.224 460.612C536.224 457.235 538.968 454.49 542.346 454.49C545.724 454.49 548.468 457.235 548.468 460.612C548.468 457.235 551.213 454.49 554.591 454.49C544.448 454.49 536.224 446.265 536.224 436.122C536.224 446.265 527.999 454.49 517.856 454.49Z" fill="#9747FF"/>
<path d="M481.122 454.49C484.499 454.49 487.244 457.235 487.244 460.612C487.244 457.235 489.989 454.49 493.366 454.49C496.744 454.49 499.489 457.235 499.489 460.612C499.489 457.235 502.234 454.49 505.611 454.49C508.989 454.49 511.734 457.235 511.734 460.612C511.734 457.235 514.479 454.49 517.856 454.49C507.713 454.49 499.489 446.265 499.489 436.122C499.489 446.265 491.264 454.49 481.122 454.49Z" fill="#9747FF"/>
<path d="M444.387 454.49C447.764 454.49 450.509 457.235 450.509 460.612C450.509 457.235 453.254 454.49 456.632 454.49C460.009 454.49 462.754 457.235 462.754 460.612C462.754 457.235 465.499 454.49 468.877 454.49C472.254 454.49 474.999 457.235 474.999 460.612C474.999 457.235 477.744 454.49 481.122 454.49C470.979 454.49 462.754 446.265 462.754 436.122C462.754 446.265 454.53 454.49 444.387 454.49Z" fill="#9747FF"/>
<g filter="url(#filter1_d_2701_3982)">
<mask id="mask1_2701_3982" style="mask-type:alpha" maskUnits="userSpaceOnUse" x="174" y="357" width="134" height="134">
<path d="M241.264 490.531C278.076 490.531 307.917 460.689 307.917 423.878C307.917 387.066 278.076 357.224 241.264 357.224C204.453 357.224 174.611 387.066 174.611 423.878C174.611 460.689 204.453 490.531 241.264 490.531Z" fill="white"/>
<path d="M241.264 489.51C277.511 489.51 306.896 460.125 306.896 423.878C306.896 387.63 277.511 358.245 241.264 358.245C205.016 358.245 175.631 387.63 175.631 423.878C175.631 460.125 205.016 489.51 241.264 489.51Z" stroke="url(#paint1_linear_2701_3982)" stroke-width="2"/>
</mask>
<g mask="url(#mask1_2701_3982)">
<g filter="url(#filter2_d_2701_3982)">
<path d="M241.264 490.531C278.076 490.531 307.917 460.689 307.917 423.878C307.917 387.066 278.076 357.224 241.264 357.224C204.453 357.224 174.611 387.066 174.611 423.878C174.611 460.689 204.453 490.531 241.264 490.531Z" fill="white"/>
<path d="M241.264 489.51C277.511 489.51 306.896 460.125 306.896 423.878C306.896 387.63 277.511 358.245 241.264 358.245C205.016 358.245 175.631 387.63 175.631 423.878C175.631 460.125 205.016 489.51 241.264 489.51Z" stroke="url(#paint2_linear_2701_3982)" stroke-width="2"/>
</g>
<path d="M202.081 463.418C202.081 470.694 196.173 476.602 188.898 476.602C181.622 476.602 175.714 470.704 175.714 463.418C175.714 456.133 181.622 450.235 188.898 450.235C196.173 450.235 202.081 456.133 202.081 463.418Z" fill="#9747FF"/>
<path d="M228.459 463.418C228.459 470.694 222.551 476.602 215.275 476.602C208 476.602 202.092 470.704 202.092 463.418C202.092 456.133 208 450.235 215.275 450.235C222.551 450.235 228.459 456.133 228.459 463.418Z" fill="#9747FF"/>
<path d="M254.837 463.418C254.837 470.694 248.928 476.602 241.653 476.602C234.377 476.602 228.469 470.704 228.469 463.418C228.469 456.133 234.377 450.235 241.653 450.235C248.928 450.235 254.837 456.133 254.837 463.418Z" fill="#9747FF"/>
<path d="M281.214 463.418C281.214 470.694 275.306 476.602 268.03 476.602C260.755 476.602 254.847 470.704 254.847 463.418C254.847 456.133 260.755 450.235 268.03 450.235C275.306 450.235 281.214 456.133 281.214 463.418Z" fill="#9747FF"/>
<path d="M307.581 463.418C307.581 470.694 301.673 476.602 294.398 476.602C287.122 476.602 281.214 470.704 281.214 463.418C281.214 456.133 287.122 450.235 294.398 450.235C301.673 450.235 307.581 456.133 307.581 463.418Z" fill="#9747FF"/>
<path d="M202.081 410.694C202.081 432.531 184.367 450.235 162.52 450.235C140.673 450.235 122.959 432.531 122.959 410.694C122.959 388.857 140.673 371.153 162.52 371.153C184.367 371.153 202.081 388.857 202.081 410.694Z" fill="#9747FF"/>
<path d="M281.214 410.694C281.214 432.531 263.5 450.235 241.653 450.235C219.806 450.235 202.092 432.531 202.092 410.694C202.092 388.857 219.806 371.153 241.653 371.153C263.5 371.153 281.214 388.857 281.214 410.694Z" fill="#9747FF"/>
<path d="M360.337 410.694C360.337 432.531 342.622 450.235 320.775 450.235C298.928 450.235 281.214 432.531 281.214 410.694C281.214 388.857 298.928 371.153 320.775 371.153C342.622 371.153 360.337 388.857 360.337 410.694Z" fill="#9747FF"/>
<path d="M201.969 452.735C207.74 452.735 212.418 448.057 212.418 442.286C212.418 436.515 207.74 431.837 201.969 431.837C196.198 431.837 191.52 436.515 191.52 442.286C191.52 448.057 196.198 452.735 201.969 452.735Z" fill="#9747FF"/>
<path d="M281.561 452.735C287.332 452.735 292.01 448.057 292.01 442.286C292.01 436.515 287.332 431.837 281.561 431.837C275.79 431.837 271.112 436.515 271.112 442.286C271.112 448.057 275.79 452.735 281.561 452.735Z" fill="#9747FF"/>
</g>
</g>
<g opacity="0.1">
<path d="M262.755 319.796C274.589 319.796 284.183 310.202 284.183 298.367C284.183 286.533 274.589 276.939 262.755 276.939C250.92 276.939 241.326 286.533 241.326 298.367C241.326 310.202 250.92 319.796 262.755 319.796Z" fill="url(#paint3_linear_2701_3982)"/>
<path d="M284.183 350.408C289.819 350.408 294.387 345.84 294.387 340.204C294.387 334.568 289.819 330 284.183 330C278.548 330 273.979 334.568 273.979 340.204C273.979 345.84 278.548 350.408 284.183 350.408Z" fill="url(#paint4_linear_2701_3982)"/>
<path d="M396.428 393.265C402.064 393.265 406.632 388.697 406.632 383.061C406.632 377.426 402.064 372.857 396.428 372.857C390.793 372.857 386.224 377.426 386.224 383.061C386.224 388.697 390.793 393.265 396.428 393.265Z" fill="url(#paint5_linear_2701_3982)"/>
<path d="M510.714 348.367C516.349 348.367 520.918 343.799 520.918 338.163C520.918 332.528 516.349 327.959 510.714 327.959C505.078 327.959 500.51 332.528 500.51 338.163C500.51 343.799 505.078 348.367 510.714 348.367Z" fill="url(#paint6_linear_2701_3982)"/>
<path d="M623.979 388.163C629.615 388.163 634.183 383.595 634.183 377.959C634.183 372.324 629.615 367.755 623.979 367.755C618.344 367.755 613.775 372.324 613.775 377.959C613.775 383.595 618.344 388.163 623.979 388.163Z" fill="url(#paint7_linear_2701_3982)"/>
<path d="M454.591 287.143C460.227 287.143 464.796 282.574 464.796 276.939C464.796 271.303 460.227 266.735 454.591 266.735C448.956 266.735 444.387 271.303 444.387 276.939C444.387 282.574 448.956 287.143 454.591 287.143Z" fill="url(#paint8_linear_2701_3982)"/>
<path d="M335.204 375.918C347.038 375.918 356.632 366.324 356.632 354.49C356.632 342.655 347.038 333.061 335.204 333.061C323.369 333.061 313.775 342.655 313.775 354.49C313.775 366.324 323.369 375.918 335.204 375.918Z" fill="url(#paint9_linear_2701_3982)"/>
<path d="M455.612 381.02C467.447 381.02 477.04 371.426 477.04 359.592C477.04 347.757 467.447 338.163 455.612 338.163C443.777 338.163 434.183 347.757 434.183 359.592C434.183 371.426 443.777 381.02 455.612 381.02Z" fill="url(#paint10_linear_2701_3982)"/>
<path d="M553.571 393.265C565.406 393.265 575 383.671 575 371.837C575 360.002 565.406 350.408 553.571 350.408C541.736 350.408 532.142 360.002 532.142 371.837C532.142 383.671 541.736 393.265 553.571 393.265Z" fill="url(#paint11_linear_2701_3982)"/>
<path d="M616.836 333.061C628.671 333.061 638.265 323.467 638.265 311.633C638.265 299.798 628.671 290.204 616.836 290.204C605.002 290.204 595.408 299.798 595.408 311.633C595.408 323.467 605.002 333.061 616.836 333.061Z" fill="url(#paint12_linear_2701_3982)"/>
<path d="M518.877 303.469C530.712 303.469 540.306 293.875 540.306 282.041C540.306 270.206 530.712 260.612 518.877 260.612C507.043 260.612 497.449 270.206 497.449 282.041C497.449 293.875 507.043 303.469 518.877 303.469Z" fill="url(#paint13_linear_2701_3982)"/>
<path d="M365.816 293.265C382.723 293.265 396.428 279.56 396.428 262.653C396.428 245.746 382.723 232.041 365.816 232.041C348.909 232.041 335.204 245.746 335.204 262.653C335.204 279.56 348.909 293.265 365.816 293.265Z" fill="url(#paint14_linear_2701_3982)"/>
</g>
<path d="M283.194 194.49C282.092 194.49 281.102 194.357 280.235 194.102C279.378 193.837 278.633 193.459 277.99 192.98L278.858 190.908C279.388 191.296 279.99 191.602 280.674 191.827C281.358 192.031 282.123 192.143 282.97 192.143C283.949 192.143 284.664 192 285.123 191.704C285.592 191.408 285.817 190.969 285.817 190.378C285.817 189.847 285.633 189.459 285.266 189.204C284.898 188.949 284.327 188.816 283.562 188.816H280.327V186.612H283.245C283.99 186.612 284.551 186.49 284.919 186.245C285.286 185.99 285.47 185.602 285.47 185.092C285.47 184.612 285.266 184.225 284.868 183.939C284.48 183.643 283.847 183.5 282.99 183.5C282.276 183.5 281.592 183.602 280.919 183.816C280.245 184.02 279.654 184.327 279.154 184.714L278.286 182.622C278.858 182.153 279.592 181.796 280.47 181.541C281.347 181.286 282.296 181.153 283.296 181.153C284.939 181.153 286.164 181.48 286.99 182.143C287.827 182.806 288.245 183.653 288.245 184.694C288.245 185.469 288.011 186.122 287.551 186.673C287.102 187.214 286.47 187.571 285.674 187.755V187.459C286.592 187.622 287.307 187.969 287.807 188.52C288.317 189.061 288.582 189.765 288.582 190.653C288.582 191.408 288.388 192.082 287.99 192.653C287.602 193.225 287 193.684 286.194 194.01C285.398 194.327 284.398 194.49 283.205 194.49H283.194Z" fill="#A400CD"/>
<path d="M294.153 194.49C293.347 194.49 292.633 194.296 292.021 193.898C291.409 193.51 290.929 192.949 290.592 192.225C290.245 191.5 290.082 190.633 290.082 189.612C290.082 188.592 290.256 187.745 290.592 187.02C290.939 186.296 291.409 185.745 292.021 185.367C292.633 184.98 293.347 184.776 294.153 184.776C294.898 184.776 295.572 184.959 296.154 185.327C296.756 185.684 297.143 186.163 297.327 186.776H297.123L297.347 184.959H300.011C299.97 185.367 299.939 185.776 299.898 186.194C299.878 186.602 299.858 187 299.858 187.388V194.276H297.102L297.082 192.531H297.307C297.113 193.122 296.715 193.592 296.133 193.949C295.541 194.306 294.888 194.48 294.153 194.48V194.49ZM295 192.398C295.633 192.398 296.153 192.173 296.541 191.714C296.929 191.255 297.133 190.561 297.133 189.622C297.133 188.684 296.939 187.99 296.541 187.551C296.153 187.112 295.633 186.888 295 186.888C294.368 186.888 293.847 187.112 293.46 187.551C293.072 187.99 292.868 188.684 292.868 189.622C292.868 190.561 293.062 191.265 293.439 191.714C293.827 192.163 294.347 192.398 295 192.398Z" fill="#A400CD"/>
<path d="M315.072 196.673V194.286H302.358V184.969H304.929V192.173H307.817V184.969H310.388V192.173H313.286V184.969H315.858V192.173H317.378V196.673H315.062H315.072Z" fill="#A400CD"/>
<path d="M318.929 194.286V184.969H321.429V191.51H320.827L325.745 184.969H328.021V194.286H325.521V187.745H326.123L321.184 194.286H318.929Z" fill="#A400CD"/>
<path d="M343.133 196.673V194.286H330.419V184.969H332.99V192.173H335.878V184.969H338.449V192.173H341.347V184.969H343.919V192.173H345.439V196.673H343.123H343.133Z" fill="#A400CD"/>
<path d="M350.694 194.49C349.888 194.49 349.174 194.296 348.562 193.898C347.949 193.51 347.47 192.949 347.133 192.225C346.786 191.5 346.623 190.633 346.623 189.612C346.623 188.592 346.796 187.745 347.133 187.02C347.48 186.296 347.949 185.745 348.562 185.367C349.174 184.98 349.888 184.776 350.694 184.776C351.439 184.776 352.113 184.959 352.694 185.327C353.296 185.684 353.684 186.163 353.868 186.776H353.664L353.888 184.959H356.551C356.511 185.367 356.48 185.776 356.439 186.194C356.419 186.602 356.398 187 356.398 187.388V194.276H353.643L353.623 192.531H353.847C353.653 193.122 353.256 193.592 352.674 193.949C352.082 194.306 351.429 194.48 350.694 194.48V194.49ZM351.541 192.398C352.174 192.398 352.694 192.173 353.082 191.714C353.47 191.255 353.674 190.561 353.674 189.622C353.674 188.684 353.48 187.99 353.082 187.551C352.694 187.112 352.174 186.888 351.541 186.888C350.909 186.888 350.388 187.112 350 187.551C349.613 187.99 349.409 188.684 349.409 189.622C349.409 190.561 349.603 191.265 349.98 191.714C350.368 192.163 350.888 192.398 351.541 192.398Z" fill="#A400CD"/>
<path d="M363.654 194.49C362.041 194.49 360.776 194.051 359.868 193.184C358.96 192.316 358.511 191.133 358.511 189.643C358.511 188.673 358.705 187.827 359.082 187.112C359.47 186.388 360.011 185.827 360.694 185.418C361.388 185 362.205 184.796 363.133 184.796C364.062 184.796 364.817 184.99 365.429 185.388C366.051 185.776 366.521 186.327 366.827 187.041C367.143 187.735 367.307 188.551 367.307 189.48V190.122H360.786V188.745H365.286L364.97 189C364.97 188.225 364.807 187.643 364.49 187.255C364.184 186.847 363.735 186.653 363.154 186.653C362.5 186.653 362 186.888 361.643 187.367C361.296 187.847 361.133 188.531 361.133 189.429V189.725C361.133 190.633 361.358 191.306 361.796 191.745C362.245 192.184 362.898 192.408 363.745 192.408C364.245 192.408 364.715 192.347 365.164 192.225C365.613 192.092 366.041 191.878 366.449 191.602L367.225 193.439C366.756 193.786 366.225 194.041 365.613 194.225C365.011 194.408 364.368 194.5 363.664 194.5L363.654 194.49Z" fill="#A400CD"/>
<path d="M371.317 194.286V187.143H368.235V184.98H377.164V187.143H374.062V194.286H371.317Z" fill="#A400CD"/>
<path d="M383.684 194.286V184.969H385.98L389.031 190.153L392.062 184.969H394.358V194.286H391.919V188.092H392.378L389.664 192.776H388.398L385.684 188.092H386.123V194.286H383.684Z" fill="#A400CD"/>
<path d="M401.531 194.49C399.919 194.49 398.654 194.051 397.745 193.184C396.837 192.316 396.388 191.133 396.388 189.643C396.388 188.673 396.582 187.827 396.96 187.112C397.347 186.388 397.888 185.827 398.572 185.418C399.266 185 400.082 184.796 401.011 184.796C401.939 184.796 402.694 184.99 403.307 185.388C403.929 185.776 404.398 186.327 404.705 187.041C405.021 187.735 405.184 188.551 405.184 189.48V190.122H398.664V188.745H403.164L402.847 189C402.847 188.225 402.684 187.643 402.368 187.255C402.062 186.847 401.613 186.653 401.031 186.653C400.378 186.653 399.878 186.888 399.521 187.367C399.174 187.847 399.011 188.531 399.011 189.429V189.725C399.011 190.633 399.235 191.306 399.674 191.745C400.123 192.184 400.776 192.408 401.623 192.408C402.123 192.408 402.592 192.347 403.041 192.225C403.49 192.092 403.919 191.878 404.327 191.602L405.102 193.439C404.633 193.786 404.103 194.041 403.49 194.225C402.888 194.408 402.245 194.5 401.541 194.5L401.531 194.49Z" fill="#A400CD"/>
<path d="M409.205 194.286V187.143H406.123V184.98H415.051V187.143H411.949V194.286H409.205Z" fill="#A400CD"/>
<path d="M420.072 194.49C419.266 194.49 418.551 194.296 417.939 193.898C417.327 193.51 416.847 192.949 416.511 192.225C416.164 191.5 416 190.633 416 189.612C416 188.592 416.174 187.745 416.511 187.02C416.858 186.296 417.327 185.745 417.939 185.367C418.551 184.98 419.266 184.776 420.072 184.776C420.817 184.776 421.49 184.959 422.072 185.327C422.674 185.684 423.062 186.163 423.245 186.776H423.041L423.266 184.959H425.929C425.888 185.367 425.858 185.776 425.817 186.194C425.796 186.602 425.776 187 425.776 187.388V194.276H423.021L423 192.531H423.225C423.031 193.122 422.633 193.592 422.051 193.949C421.46 194.306 420.807 194.48 420.072 194.48V194.49ZM420.919 192.398C421.551 192.398 422.072 192.173 422.46 191.714C422.847 191.265 423.051 190.561 423.051 189.622C423.051 188.684 422.858 187.99 422.46 187.551C422.072 187.112 421.551 186.888 420.919 186.888C420.286 186.888 419.766 187.112 419.378 187.551C418.99 187.99 418.786 188.684 418.786 189.622C418.786 190.561 418.98 191.265 419.358 191.714C419.745 192.163 420.266 192.398 420.919 192.398Z" fill="#A400CD"/>
<path d="M428.184 194.561L427.358 192.398C427.745 192.276 428.082 192.112 428.347 191.898C428.613 191.694 428.827 191.418 428.99 191.092C429.164 190.765 429.286 190.347 429.358 189.857C429.429 189.367 429.47 188.786 429.47 188.112V184.969H437.276V194.286H434.521V187.082H431.97V188.204C431.97 189.48 431.837 190.551 431.562 191.439C431.296 192.316 430.878 193.02 430.327 193.531C429.776 194.041 429.062 194.388 428.174 194.561H428.184Z" fill="#A400CD"/>
<path d="M439.602 194.561L438.776 192.398C439.164 192.276 439.5 192.112 439.766 191.898C440.031 191.694 440.245 191.418 440.409 191.092C440.582 190.765 440.705 190.347 440.776 189.857C440.847 189.367 440.888 188.786 440.888 188.112V184.969H448.694V194.286H445.939V187.082H443.388V188.204C443.388 189.48 443.256 190.551 442.98 191.439C442.715 192.316 442.296 193.02 441.745 193.531C441.194 194.041 440.48 194.388 439.592 194.561H439.602Z" fill="#A400CD"/>
<path d="M311.368 214.898C310.378 214.898 309.511 214.704 308.776 214.306C308.051 213.898 307.49 213.337 307.082 212.612C306.694 211.888 306.49 211.031 306.49 210.02C306.49 209.01 306.684 208.173 307.082 207.449C307.49 206.725 308.051 206.173 308.776 205.776C309.511 205.388 310.378 205.184 311.368 205.184C312.358 205.184 313.225 205.378 313.96 205.776C314.694 206.173 315.256 206.725 315.654 207.449C316.062 208.173 316.256 209.031 316.256 210.02C316.256 211.01 316.051 211.888 315.654 212.612C315.266 213.337 314.694 213.898 313.96 214.306C313.225 214.694 312.358 214.898 311.368 214.898ZM311.368 212.806C312 212.806 312.511 212.582 312.878 212.122C313.256 211.673 313.449 210.969 313.449 210.031C313.449 209.092 313.256 208.398 312.878 207.959C312.511 207.52 312.011 207.296 311.368 207.296C310.725 207.296 310.225 207.52 309.847 207.959C309.48 208.398 309.296 209.092 309.296 210.031C309.296 210.969 309.48 211.673 309.847 212.122C310.225 212.571 310.735 212.806 311.368 212.806Z" fill="#A400CD"/>
<path d="M320.296 214.694V207.551H317.215V205.388H326.143V207.551H323.041V214.694H320.296Z" fill="#A400CD"/>
<path d="M332.664 214.694V205.378H335.398V208.888H336.592L339.113 205.378H342.072L338.694 210.112L338.143 209.235C338.47 209.276 338.776 209.367 339.041 209.531C339.307 209.694 339.562 209.898 339.796 210.153C340.041 210.408 340.266 210.714 340.46 211.071L342.439 214.694H339.5L337.98 211.959C337.858 211.714 337.725 211.52 337.572 211.388C337.439 211.245 337.286 211.143 337.113 211.092C336.939 211.031 336.735 211 336.49 211H335.409V214.694H332.664Z" fill="#A400CD"/>
<path d="M347.96 214.898C346.97 214.898 346.102 214.704 345.368 214.306C344.643 213.898 344.082 213.337 343.674 212.612C343.286 211.888 343.082 211.031 343.082 210.02C343.082 209.01 343.276 208.173 343.674 207.449C344.082 206.725 344.643 206.173 345.368 205.776C346.102 205.388 346.97 205.184 347.96 205.184C348.949 205.184 349.817 205.378 350.551 205.776C351.286 206.173 351.847 206.725 352.245 207.449C352.654 208.173 352.847 209.031 352.847 210.02C352.847 211.01 352.643 211.888 352.245 212.612C351.858 213.337 351.286 213.898 350.551 214.306C349.817 214.694 348.949 214.898 347.96 214.898ZM347.96 212.806C348.592 212.806 349.103 212.582 349.47 212.122C349.847 211.673 350.041 210.969 350.041 210.031C350.041 209.092 349.847 208.398 349.47 207.959C349.103 207.52 348.602 207.296 347.96 207.296C347.317 207.296 346.817 207.52 346.439 207.959C346.072 208.398 345.888 209.092 345.888 210.031C345.888 210.969 346.072 211.673 346.439 212.122C346.817 212.571 347.327 212.806 347.96 212.806Z" fill="#A400CD"/>
<path d="M354.939 207.806C354.939 207.418 354.929 207.02 354.898 206.612C354.878 206.194 354.837 205.786 354.786 205.378H357.449L357.674 207.194H357.47C357.654 206.582 358.041 206.102 358.623 205.745C359.215 205.378 359.888 205.194 360.643 205.194C361.449 205.194 362.164 205.388 362.776 205.786C363.388 206.163 363.868 206.714 364.205 207.439C364.562 208.163 364.735 209.02 364.735 210.031C364.735 211.041 364.562 211.918 364.205 212.643C363.858 213.367 363.388 213.918 362.776 214.316C362.164 214.704 361.449 214.908 360.643 214.908C359.898 214.908 359.225 214.735 358.643 214.378C358.072 214.02 357.684 213.551 357.49 212.959H357.715V218.673H354.939V207.806ZM359.807 212.806C360.46 212.806 360.98 212.582 361.368 212.122C361.756 211.663 361.96 210.969 361.96 210.031C361.96 209.092 361.766 208.398 361.368 207.959C360.98 207.52 360.46 207.296 359.807 207.296C359.153 207.296 358.653 207.52 358.245 207.959C357.858 208.398 357.654 209.092 357.654 210.031C357.654 210.969 357.847 211.673 358.245 212.122C358.653 212.571 359.174 212.806 359.807 212.806Z" fill="#A400CD"/>
<path d="M366.827 207.806C366.827 207.418 366.817 207.02 366.786 206.612C366.766 206.194 366.725 205.786 366.674 205.378H369.337L369.562 207.194H369.358C369.541 206.582 369.929 206.102 370.511 205.745C371.102 205.378 371.776 205.194 372.531 205.194C373.337 205.194 374.051 205.388 374.664 205.786C375.276 206.163 375.756 206.714 376.092 207.439C376.449 208.163 376.623 209.02 376.623 210.031C376.623 211.041 376.449 211.918 376.092 212.643C375.745 213.367 375.276 213.918 374.664 214.316C374.051 214.704 373.337 214.908 372.531 214.908C371.786 214.908 371.113 214.735 370.531 214.378C369.96 214.02 369.572 213.551 369.378 212.959H369.602V218.673H366.827V207.806ZM371.694 212.806C372.347 212.806 372.868 212.582 373.256 212.122C373.643 211.673 373.847 210.969 373.847 210.031C373.847 209.092 373.654 208.398 373.256 207.959C372.868 207.52 372.347 207.296 371.694 207.296C371.041 207.296 370.541 207.52 370.133 207.959C369.745 208.398 369.541 209.092 369.541 210.031C369.541 210.969 369.735 211.673 370.133 212.122C370.541 212.571 371.062 212.806 371.694 212.806Z" fill="#A400CD"/>
<path d="M383.133 214.898C382.143 214.898 381.276 214.704 380.541 214.306C379.817 213.898 379.256 213.337 378.847 212.612C378.46 211.888 378.256 211.031 378.256 210.02C378.256 209.01 378.449 208.173 378.847 207.449C379.256 206.725 379.817 206.173 380.541 205.776C381.276 205.388 382.143 205.184 383.133 205.184C384.123 205.184 384.99 205.378 385.725 205.776C386.46 206.173 387.021 206.725 387.419 207.449C387.827 208.173 388.021 209.031 388.021 210.02C388.021 211.01 387.817 211.888 387.419 212.612C387.031 213.337 386.46 213.898 385.725 214.306C384.99 214.694 384.123 214.898 383.133 214.898ZM383.133 212.806C383.766 212.806 384.276 212.582 384.643 212.122C385.021 211.673 385.215 210.969 385.215 210.031C385.215 209.092 385.021 208.398 384.643 207.959C384.276 207.52 383.776 207.296 383.133 207.296C382.49 207.296 381.99 207.52 381.613 207.959C381.245 208.398 381.062 209.092 381.062 210.031C381.062 210.969 381.245 211.673 381.613 212.122C381.99 212.571 382.5 212.806 383.133 212.806Z" fill="#A400CD"/>
<path d="M393.664 214.898C392.807 214.898 392 214.806 391.235 214.622C390.49 214.439 389.858 214.163 389.347 213.796L390.062 212.031C390.511 212.327 391.051 212.561 391.674 212.725C392.307 212.888 392.97 212.959 393.643 212.959C394.358 212.959 394.878 212.878 395.205 212.704C395.531 212.52 395.705 212.255 395.705 211.898C395.705 211.582 395.582 211.337 395.337 211.163C395.102 210.99 394.745 210.908 394.256 210.908H391.705V209.051H394.021C394.46 209.051 394.796 208.969 395.031 208.816C395.266 208.653 395.378 208.429 395.378 208.133C395.378 207.816 395.225 207.561 394.919 207.378C394.623 207.194 394.133 207.102 393.429 207.102C392.796 207.102 392.205 207.173 391.664 207.327C391.133 207.469 390.643 207.673 390.194 207.929L389.5 206.235C390 205.888 390.623 205.633 391.378 205.459C392.123 205.276 392.949 205.184 393.837 205.184C395.123 205.184 396.113 205.418 396.817 205.878C397.511 206.327 397.868 206.969 397.868 207.806C397.868 208.367 397.674 208.857 397.296 209.255C396.919 209.643 396.398 209.898 395.756 210.01V209.735C396.531 209.796 397.123 210.031 397.551 210.429C397.98 210.816 398.194 211.367 398.194 212.061C398.194 212.918 397.796 213.602 397 214.122C396.215 214.622 395.113 214.878 393.674 214.878L393.664 214.898Z" fill="#A400CD"/>
<path d="M400.011 214.694V205.378H402.511V211.918H401.909L406.827 205.378H409.102V214.694H406.602V208.153H407.205L402.266 214.694H400.011Z" fill="#A400CD"/>
<path d="M411.511 214.694V205.378H414.011V211.918H413.409L418.327 205.378H420.602V214.694H418.102V208.153H418.705L413.766 214.694H411.511Z" fill="#A400CD"/>
<path d="M88.2656 158.571V156.602H91.2452V147.602H92.3881L88.5717 149.878V147.633L91.9289 145.612H93.6228V156.592H96.4187V158.561H88.286L88.2656 158.571Z" fill="url(#paint15_linear_2701_3982)"/>
</g>
<defs>
<filter id="filter0_d_2701_3982" x="-65" y="0" width="820" height="620" filterUnits="userSpaceOnUse" color-interpolation-filters="sRGB">
<feFlood flood-opacity="0" result="BackgroundImageFix"/>
<feColorMatrix in="SourceAlpha" type="matrix" values="0 0 0 0 0 0 0 0 0 0 0 0 0 0 0 0 0 0 127 0" result="hardAlpha"/>
<feOffset dx="-30" dy="-20"/>
<feGaussianBlur stdDeviation="30"/>
<feComposite in2="hardAlpha" operator="out"/>
<feColorMatrix type="matrix" values="0 0 0 0 0.973077 0 0 0 0 0.95 0 0 0 0 1 0 0 0 1 0"/>
<feBlend mode="normal" in2="BackgroundImageFix" result="effect1_dropShadow_2701_3982"/>
<feBlend mode="normal" in="SourceGraphic" in2="effect1_dropShadow_2701_3982" result="shape"/>
</filter>
<filter id="filter1_d_2701_3982" x="150.611" y="336.224" width="221.307" height="221.306" filterUnits="userSpaceOnUse" color-interpolation-filters="sRGB">
<feFlood flood-opacity="0" result="BackgroundImageFix"/>
<feColorMatrix in="SourceAlpha" type="matrix" values="0 0 0 0 0 0 0 0 0 0 0 0 0 0 0 0 0 0 127 0" result="hardAlpha"/>
<feOffset dx="20" dy="23"/>
<feGaussianBlur stdDeviation="22"/>
<feComposite in2="hardAlpha" operator="out"/>
<feColorMatrix type="matrix" values="0 0 0 0 0 0 0 0 0 0 0 0 0 0 0 0 0 0 0.25 0"/>
<feBlend mode="normal" in2="BackgroundImageFix" result="effect1_dropShadow_2701_3982"/>
<feBlend mode="normal" in="SourceGraphic" in2="effect1_dropShadow_2701_3982" result="shape"/>
</filter>
<filter id="filter2_d_2701_3982" x="150.611" y="337.224" width="221.307" height="221.306" filterUnits="userSpaceOnUse" color-interpolation-filters="sRGB">
<feFlood flood-opacity="0" result="BackgroundImageFix"/>
<feColorMatrix in="SourceAlpha" type="matrix" values="0 0 0 0 0 0 0 0 0 0 0 0 0 0 0 0 0 0 127 0" result="hardAlpha"/>
<feOffset dx="20" dy="24"/>
<feGaussianBlur stdDeviation="22"/>
<feComposite in2="hardAlpha" operator="out"/>
<feColorMatrix type="matrix" values="0 0 0 0 0 0 0 0 0 0 0 0 0 0 0 0 0 0 0.25 0"/>
<feBlend mode="normal" in2="BackgroundImageFix" result="effect1_dropShadow_2701_3982"/>
<feBlend mode="normal" in="SourceGraphic" in2="effect1_dropShadow_2701_3982" result="shape"/>
</filter>
<linearGradient id="paint0_linear_2701_3982" x1="17.4286" y1="115.929" x2="726.745" y2="550.51" gradientUnits="userSpaceOnUse">
<stop stop-color="#FCFCFC"/>
<stop offset="1" stop-color="#F7F1FF"/>
</linearGradient>
<linearGradient id="paint1_linear_2701_3982" x1="198.082" y1="373.786" x2="285.136" y2="474.778" gradientUnits="userSpaceOnUse">
<stop stop-color="#9747FF"/>
<stop offset="1" stop-color="white" stop-opacity="0"/>
</linearGradient>
<linearGradient id="paint2_linear_2701_3982" x1="198.082" y1="373.786" x2="285.136" y2="474.778" gradientUnits="userSpaceOnUse">
<stop stop-color="#9747FF"/>
<stop offset="1" stop-color="white" stop-opacity="0"/>
</linearGradient>
<linearGradient id="paint3_linear_2701_3982" x1="229.323" y1="318.219" x2="641.461" y2="252.152" gradientUnits="userSpaceOnUse">
<stop stop-color="#A400CD"/>
<stop offset="1" stop-color="#D33883"/>
</linearGradient>
<linearGradient id="paint4_linear_2701_3982" x1="229.22" y1="318.215" x2="641.581" y2="252.191" gradientUnits="userSpaceOnUse">
<stop stop-color="#A400CD"/>
<stop offset="1" stop-color="#D33883"/>
</linearGradient>
<linearGradient id="paint5_linear_2701_3982" x1="229.22" y1="318.215" x2="641.581" y2="252.191" gradientUnits="userSpaceOnUse">
<stop stop-color="#A400CD"/>
<stop offset="1" stop-color="#D33883"/>
</linearGradient>
<linearGradient id="paint6_linear_2701_3982" x1="229.22" y1="318.215" x2="641.581" y2="252.191" gradientUnits="userSpaceOnUse">
<stop stop-color="#A400CD"/>
<stop offset="1" stop-color="#D33883"/>
</linearGradient>
<linearGradient id="paint7_linear_2701_3982" x1="229.22" y1="318.215" x2="641.581" y2="252.191" gradientUnits="userSpaceOnUse">
<stop stop-color="#A400CD"/>
<stop offset="1" stop-color="#D33883"/>
</linearGradient>
<linearGradient id="paint8_linear_2701_3982" x1="229.22" y1="318.215" x2="641.581" y2="252.191" gradientUnits="userSpaceOnUse">
<stop stop-color="#A400CD"/>
<stop offset="1" stop-color="#D33883"/>
</linearGradient>
<linearGradient id="paint9_linear_2701_3982" x1="229.323" y1="318.219" x2="641.461" y2="252.152" gradientUnits="userSpaceOnUse">
<stop stop-color="#A400CD"/>
<stop offset="1" stop-color="#D33883"/>
</linearGradient>
<linearGradient id="paint10_linear_2701_3982" x1="229.323" y1="318.219" x2="641.461" y2="252.152" gradientUnits="userSpaceOnUse">
<stop stop-color="#A400CD"/>
<stop offset="1" stop-color="#D33883"/>
</linearGradient>
<linearGradient id="paint11_linear_2701_3982" x1="229.323" y1="318.219" x2="641.461" y2="252.152" gradientUnits="userSpaceOnUse">
<stop stop-color="#A400CD"/>
<stop offset="1" stop-color="#D33883"/>
</linearGradient>
<linearGradient id="paint12_linear_2701_3982" x1="229.323" y1="318.219" x2="641.461" y2="252.152" gradientUnits="userSpaceOnUse">
<stop stop-color="#A400CD"/>
<stop offset="1" stop-color="#D33883"/>
</linearGradient>
<linearGradient id="paint13_linear_2701_3982" x1="229.323" y1="318.219" x2="641.461" y2="252.152" gradientUnits="userSpaceOnUse">
<stop stop-color="#A400CD"/>
<stop offset="1" stop-color="#D33883"/>
</linearGradient>
<linearGradient id="paint14_linear_2701_3982" x1="333.347" y1="264.765" x2="398.285" y2="260.541" gradientUnits="userSpaceOnUse">
<stop stop-color="#A400CD"/>
<stop offset="1" stop-color="#D33883"/>
</linearGradient>
<linearGradient id="paint15_linear_2701_3982" x1="88.0105" y1="152.347" x2="96.6636" y2="151.99" gradientUnits="userSpaceOnUse">
<stop stop-color="#A400CD"/>
<stop offset="1" stop-color="#D33883"/>
</linearGradient>
</defs>
</svg>
