<svg width="20" height="20" viewBox="0 0 20 20" fill="none" xmlns="http://www.w3.org/2000/svg">
<path fill-rule="evenodd" clip-rule="evenodd" d="M3.16227 9.54455L3.09461 10.1343H0.659794C0.2954 10.1343 0 9.83608 0 9.46818L-nan -nanL0 9.46818C0 9.10028 0.295399 8.80204 0.659793 8.80204H1.93834C1.97559 8.62106 2.02521 8.40445 2.09035 8.16113C2.28275 7.44242 2.61415 6.47696 3.17161 5.50518C4.29657 3.54412 6.364 1.53857 10 1.53857C13.636 1.53857 15.7034 3.54412 16.8284 5.50518C17.3858 6.47696 17.7173 7.44242 17.9096 8.16113C17.9748 8.40445 18.0244 8.62106 18.0617 8.80204H19.3402C19.7046 8.80204 20 9.10028 20 9.46818L-nan -nanL20 9.46818C20 9.83608 19.7046 10.1343 19.3402 10.1343H16.9054L16.8378 9.54508L16.8377 9.54405L16.8363 9.53285C16.8349 9.52241 16.8326 9.50542 16.8293 9.48233C16.8226 9.43613 16.8115 9.36558 16.7951 9.27418C16.7621 9.09119 16.7073 8.8257 16.6216 8.50539C16.4494 7.8622 16.1558 7.0118 15.6716 6.16771C14.7132 4.49704 13.0307 2.87085 10 2.87085C6.96934 2.87085 5.28676 4.49704 4.32839 6.16771C3.84418 7.0118 3.55058 7.8622 3.3784 8.50539C3.29265 8.8257 3.23792 9.09119 3.20493 9.27418C3.18845 9.36558 3.17745 9.43613 3.17073 9.48233C3.16738 9.50542 3.1651 9.52241 3.16375 9.53285L3.1624 9.54353L3.16227 9.54455ZM10 6.90611C8.50745 6.90611 7.33333 8.07266 7.33333 9.46818C7.33333 10.8637 8.50745 12.0302 10 12.0302C11.4926 12.0302 12.6667 10.8637 12.6667 9.46818C12.6667 8.07266 11.4926 6.90611 10 6.90611ZM6 9.46818C6 7.29792 7.81065 5.57383 10 5.57383C12.1893 5.57383 14 7.29792 14 9.46818C14 11.6384 12.1893 13.3625 10 13.3625C7.81065 13.3625 6 11.6384 6 9.46818ZM7.61966 15.8737C8.55066 16.2407 9.46712 16.3601 10 16.3601C10.5329 16.3601 11.4493 16.2407 12.3803 15.8737C13.1146 15.5843 13.8252 15.1543 14.3712 14.5384C14.6144 14.264 15.0179 14.1647 15.3281 14.3584L-nan -nanL15.3281 14.3584C15.6423 14.5547 15.7406 14.9753 15.505 15.2628C14.7644 16.1666 13.7938 16.7487 12.8697 17.113C11.7729 17.5454 10.6893 17.6924 10 17.6924C9.31066 17.6924 8.22711 17.5454 7.13034 17.113C6.2062 16.7487 5.23563 16.1666 4.495 15.2628C4.25945 14.9753 4.35766 14.5547 4.67193 14.3584L-nan -nanL4.67193 14.3584C4.98209 14.1647 5.38559 14.264 5.62882 14.5384C6.17482 15.1543 6.8854 15.5843 7.61966 15.8737Z" fill="white"/>
</svg>
